<svg xmlns="http://www.w3.org/2000/svg" data-name="Layer 1" width="896" height="747.971435546875"><rect id="backgroundrect" width="100%" height="100%" x="0" y="0" fill="none" stroke="none"/><title>empty_cart</title><g class="currentLayer" style=""><title>Layer 1</title><path d="M41.633999999999986,712.737960144043 c12.428420000000001,23.049 38.806,32.9435 38.806,32.9435 s6.22712,-27.47543 -6.2013,-50.52448 s-38.806,-32.9435 -38.806,-32.9435 S29.20559,689.688910144043 41.633999999999986,712.737960144043 z" fill="#2f2e41" id="svg_1"/><path d="M50.176530000000014,705.154980144043 c22.43841,13.49969 31.08016,40.3138 31.08016,40.3138 s-27.73812,4.9267900000000004 -50.17653,-8.57291 S0,696.582070144043 0,696.582070144043 S27.738110000000006,691.655290144043 50.176530000000014,705.154980144043 z" fill="#00c3da" id="svg_2"/><rect x="413.2485046386719" y="35.90779113769531" width="140" height="2" fill="#f2f2f2" id="svg_3"/><rect x="513.2484741210938" y="37.40779113769531" width="2" height="18.5" fill="#f2f2f2" id="svg_4"/><rect x="452.2485046386719" y="37.40779113769531" width="2" height="18.5" fill="#f2f2f2" id="svg_5"/><rect x="484.2485046386719" y="131.9077911376953" width="140" height="2" fill="#f2f2f2" id="svg_6"/><rect x="522.2484741210938" y="113.90779113769531" width="2" height="18.5" fill="#f2f2f2" id="svg_7"/><rect x="583.2484741210938" y="113.90779113769531" width="2" height="18.5" fill="#f2f2f2" id="svg_8"/><rect x="670.2484741210938" y="176.9077911376953" width="140" height="2" fill="#f2f2f2" id="svg_9"/><rect x="708.2484741210938" y="158.9077911376953" width="2" height="18.5" fill="#f2f2f2" id="svg_10"/><rect x="769.2484741210938" y="158.9077911376953" width="2" height="18.5" fill="#f2f2f2" id="svg_11"/><rect x="656.2484741210938" y="640.9077758789062" width="140" height="2" fill="#f2f2f2" id="svg_12"/><rect x="694.2484741210938" y="622.9077758789062" width="2" height="18.5" fill="#f2f2f2" id="svg_13"/><rect x="755.2484741210938" y="622.9077758789062" width="2" height="18.5" fill="#f2f2f2" id="svg_14"/><rect x="417.2485046386719" y="319.90777587890625" width="140" height="2" fill="#f2f2f2" id="svg_15"/><rect x="455.2485046386719" y="301.90777587890625" width="2" height="18.5" fill="#f2f2f2" id="svg_16"/><rect x="516.2484741210938" y="301.90777587890625" width="2" height="18.5" fill="#f2f2f2" id="svg_17"/><rect x="461.2485046386719" y="560.9077758789062" width="140" height="2" fill="#f2f2f2" id="svg_18"/><rect x="499.2485046386719" y="542.9077758789062" width="2" height="18.5" fill="#f2f2f2" id="svg_19"/><rect x="560.2484741210938" y="542.9077758789062" width="2" height="18.5" fill="#f2f2f2" id="svg_20"/><rect x="685.2484741210938" y="487.90777587890625" width="140" height="2" fill="#f2f2f2" id="svg_21"/><rect x="723.2484741210938" y="469.90777587890625" width="2" height="18.5" fill="#f2f2f2" id="svg_22"/><rect x="784.2484741210938" y="469.90777587890625" width="2" height="18.5" fill="#f2f2f2" id="svg_23"/><polygon points="362.06 702.184 125.274 702.184 125.274 700.481 360.356 700.481 360.356 617.861 145.18 617.861 134.727 596.084 136.263 595.347 146.252 616.157 362.06 616.157 362.06 702.184" fill="#2f2e41" id="svg_24"/><circle cx="156.78851318359375" cy="726.0330200195312" r="17.886730194091797" fill="#3f3d56" id="svg_25"/><circle cx="333.10052490234375" cy="726.0330200195312" r="17.886730194091797" fill="#3f3d56" id="svg_26"/><circle cx="540.92724609375" cy="346.15301513671875" r="11.072739601135254" fill="#3f3d56" id="svg_27"/><path d="M387.38538000000005,589.753180144043 H121.23673000000002 L63.648439999999994,401.516710144043 H446.69255999999996 l-0.3485200000000001,1.1075300000000001 zm-264.8885,-1.7035 H386.13599999999997 l58.23417,-184.82951 H65.95082 z" fill="#2f2e41" id="svg_28"/><polygon points="366.61 579.958 132.842 579.958 82.26 413.015 418.701 413.015 418.395 413.998 366.61 579.958" fill="#f2f2f2" id="svg_29"/><polygon points="451.465 384.7 449.818 384.263 461.059 341.894 526.448 341.894 526.448 343.598 462.37 343.598 451.465 384.7" fill="#2f2e41" id="svg_30"/><rect x="82.2583999633789" y="458.5838623046875" width="345.2930908203125" height="1.7035000324249268" fill="#2f2e41" id="svg_31"/><rect x="101.45893859863281" y="521.34375" width="306.3185119628906" height="1.7035000324249268" fill="#2f2e41" id="svg_32"/><rect x="254.3137664794922" y="402.3684387207031" width="1.7035000324249268" height="186.5330047607422" fill="#2f2e41" id="svg_33"/><rect x="110.8182373046875" y="1507.0322265625" width="186.92877197265625" height="1.7037899494171143" transform="rotate(-86.24919128417969 -274.73922729492193,936.2349243164062) " fill="#2f2e41" id="svg_34"/><rect x="145.98861694335938" y="425.1884765625" width="1.7037899494171143" height="186.92877197265625" transform="rotate(-3.7290000915527344 -188.46865844726565,-52.99637985229508) " fill="#2f2e41" id="svg_35"/><rect y="745" width="896" height="2" fill="#2f2e41" id="svg_36"/><path d="M595.41068,61.87599014404296 s14.61842,41.60627 5.62246,48.00724 S631.39448,168.55871014404298 631.39448,168.55871014404298 l47.22874,-12.80193 l-25.86336,-43.73993 s-3.3734800000000003,-43.73992 -3.3734800000000003,-50.14089 S595.41068,61.87599014404296 595.41068,61.87599014404296 z" fill="#fcd6d6" id="svg_37" class="" fill-opacity="1"/><path d="M595.4106860796737,48.27598976257323 s14.61842,41.60627 5.62246,48.00724 S631.3944860796738,154.95870976257325 631.3944860796738,154.95870976257325 l47.22874,-12.80193 l-25.86336,-43.73993 s-3.3734800000000003,-43.73992 -3.3734800000000003,-50.14089 S595.4106860796737,48.27598976257323 595.4106860796737,48.27598976257323 z" opacity="0.1" id="svg_38" class=""/><path d="M570.87364,358.454030144043 s-4.26731,53.34138 0,81.07889 s10.66828,104.5491 10.66828,104.5491 s0,145.08854 23.4702,147.22219 s40.53945,4.26731 42.6731,-4.26731 s-10.66827,-12.80193 -4.26731,-17.06924 s8.53462,-19.20289 0,-36.27213 s0,-189.8953 0,-189.8953 l40.53945,108.81641 s4.26731,89.61351 8.53462,102.41544 s-4.26731,36.27213 10.66827,38.40579 s32.00483,-10.66828 40.53945,-14.93559 s-12.80193,-4.26731 -8.53462,-6.401 s17.06924,-8.53462 12.80193,-10.66828 s-8.53462,-104.54909 -8.53462,-104.54909 S727.69728,338.18431014404297 712.7617,329.64971014404296 s-24.537,6.16576 -24.537,6.16576 z" fill="#2f2e41" id="svg_39"/><path d="M609.27943,682.7695901440429 v17.06924 s-19.20289,46.39942 0,46.39942 s34.13848,4.8083 34.13848,-1.59266 V687.036900144043 z" fill="#2f2e41" id="svg_40"/><path d="M735.16508,682.739290144043 v17.06924 s19.20289,46.39941 0,46.39941 s-34.13848,4.80831 -34.13848,-1.59266 V687.006600144043 z" fill="#2f2e41" id="svg_41"/><circle cx="625.2818603515625" cy="54.408199310302734" r="38.40578842163086" fill="#fcd6d6" id="svg_42" class="" fill-opacity="1"/><path d="M613.54674,125.88564014404298 s10.66828,32.00482 27.73752,25.60386 l17.06924,-6.401 L688.22467,349.91941014404296 s-23.47021,34.13848 -57.60869,12.80193 S613.54674,125.88564014404298 613.54674,125.88564014404298 z" fill="#00c3da" id="svg_43"/><path d="M643.41791,119.48471014404296 l9.60145,-20.26972 s56.54186,26.67069 65.07648,35.20531 s8.53462,21.33655 8.53462,21.33655 l-14.93559,53.34137 s4.26731,117.351 4.26731,121.61834 s14.93559,27.73751 4.26731,19.20289 s-12.80193,-17.06924 -21.33655,-4.26731 s-27.73751,27.73752 -27.73751,27.73752 z" fill="#3f3d56" id="svg_44"/><path d="M718.09584,273.10783014404296 l-6.401,59.74234 s-38.40579,34.13848 -29.87117,36.27214 s12.80193,-6.401 12.80193,-6.401 s14.93559,14.93559 23.47021,6.401 S747.967,279.508800144043 747.967,279.508800144043 z" fill="#fcd6d6" id="svg_45" class="" fill-opacity="1"/><path d="M626.1,0.12987014404296815 c-8.51412,-0.3043700000000001 -17.62549,-0.45493 -24.80406,4.13321 a36.31263,36.31263 0 0 0 -8.5723,8.39153 c-6.99153,8.83846 -13.03253,19.95926 -10.43553,30.92537 l3.01633,-1.1764000000000001 a19.75086,19.75086 0 0 1 -1.90515,8.46261 c0.42475,-1.2351 1.84722,0.76151 1.4664000000000001,2.01085 L581.543,63.77771014404297 c5.46207,-2.00239 12.25661,2.05189 13.08819,7.80969 c0.37974,-12.66123 1.6932,-27.17965 11.964,-34.59331 c5.17951,-3.73868 11.73465,-4.88 18.04162,-5.8935 c5.81832,-0.935 11.91781,-1.82659 17.49077,0.08886000000000002 s10.31871,7.615 9.0553,13.37093 c2.56964,-0.8851800000000001 5.44356,0.90566 6.71347,3.30856 s1.3366200000000001,5.2375 1.37484,7.95506 c2.73911,1.9358300000000002 5.85632,-1.9082 6.97263,-5.07112 c2.62033,-7.42434 4.94941,-15.32739 3.53783,-23.073 s-7.72325,-15.14773 -15.59638,-15.174 a5.46676,5.46676 0 0 0 1.42176,-3.8487400000000003 l-6.48928,-0.5483 a7.1723,7.1723 0 0 0 4.28575,-2.25954 C650.7981,8.716230144042967 630.31323,0.2804801440429685 626.1,0.12987014404296815 z" fill="#2f2e41" id="svg_46"/><path d="M624.215,113.08371014404298 s-17.36929,-17.02085 -23.62023,-15.97822 S585.80923,113.08371014404298 585.80923,113.08371014404298 s-51.20772,17.06924 -49.07407,34.13848 S562.339,247.50397014404297 562.339,247.50397014404297 s19.2029,100.28179 2.13366,110.95006 s81.07889,38.40579 83.21254,25.60386 s6.401,-140.82123 0,-160.02412 S624.215,113.08371014404298 624.215,113.08371014404298 z" fill="#3f3d56" id="svg_47"/><path d="M698.89294,147.22219014404297 h26.38265 S743.6997,228.30108014404294 745.83335,236.835710144043 s6.401,49.07406 4.26731,49.07406 s-44.80675,-8.53462 -44.80675,-2.13365 z" fill="#3f3d56" id="svg_48"/><path d="M698,348.000000144043 H597 c-9.85608,-45.34 -10.67957,-89.14649 0,-131 H698 C681.70081,258.100710144043 680.68225,301.607080144043 698,348.000000144043 z" fill="#f2f2f2" id="svg_49"/><path d="M555.93806,292.31071014404296 L585.80923,305.112710144043 s57.60868,8.53462 57.60868,-14.93559 s-57.60868,-10.66827 -57.60868,-10.66827 L566.60505,273.36871014404295 z" fill="#fcd6d6" id="svg_50" class="selected" fill-opacity="1"/><path d="M562.339,134.42026014404297 l-25.60386,6.401 L517.53227,253.904940144043 s-6.401,29.87117 4.26731,32.00482 S562.339,305.112710144043 562.339,305.112710144043 s4.26731,-32.00483 12.80193,-32.00483 L553.8044,256.038590144043 L566.60633,181.36071014404297 z" fill="#3f3d56" id="svg_51"/><rect x="60.24850082397461" y="352.90777587890625" width="140" height="2" fill="#f2f2f2" id="svg_52"/><rect x="98.24849700927734" y="334.90777587890625" width="2" height="18.5" fill="#f2f2f2" id="svg_53"/><rect x="159.24850463867188" y="334.90777587890625" width="2" height="18.5" fill="#f2f2f2" id="svg_54"/><rect x="109.24849700927734" y="56.90779113769531" width="140" height="2" fill="#f2f2f2" id="svg_55"/><rect x="209.24850463867188" y="58.40779113769531" width="2" height="18.5" fill="#f2f2f2" id="svg_56"/><rect x="148.24850463867188" y="58.40779113769531" width="2" height="18.5" fill="#f2f2f2" id="svg_57"/><rect x="250.24850463867188" y="253.9077911376953" width="140" height="2" fill="#f2f2f2" id="svg_58"/><rect x="350.2485046386719" y="255.4077911376953" width="2" height="18.5" fill="#f2f2f2" id="svg_59"/><rect x="289.2485046386719" y="255.4077911376953" width="2" height="18.5" fill="#f2f2f2" id="svg_60"/><rect x="12.248499870300293" y="252.9077911376953" width="140" height="2" fill="#f2f2f2" id="svg_61"/><rect x="112.24849700927734" y="254.4077911376953" width="2" height="18.5" fill="#f2f2f2" id="svg_62"/><rect x="51.24850082397461" y="254.4077911376953" width="2" height="18.5" fill="#f2f2f2" id="svg_63"/><rect x="180.24850463867188" y="152.9077911376953" width="140" height="2" fill="#f2f2f2" id="svg_64"/><rect x="218.24850463867188" y="134.9077911376953" width="2" height="18.5" fill="#f2f2f2" id="svg_65"/><rect x="279.2485046386719" y="134.9077911376953" width="2" height="18.5" fill="#f2f2f2" id="svg_66"/></g></svg>