<svg xmlns="http://www.w3.org/2000/svg" xmlns:xlink="http://www.w3.org/1999/xlink" data-name="Layer 1" width="1009.5399780273438" height="789.9299926757812"><rect id="backgroundrect" width="100%" height="100%" x="0" y="0" fill="none" stroke="none"/><defs><linearGradient id="07c62293-c0d3-4921-8e06-4e39241449cd" x1="0.00041858229087665677" y1="0.5001177787780762" x2="1" y2="0.5001177787780762"><stop offset="0" stop-color="gray" stop-opacity="0.25"/><stop offset="0.54" stop-color="gray" stop-opacity="0.12"/><stop offset="1" stop-color="gray" stop-opacity="0.1"/></linearGradient></defs><title>empty</title><g class="currentLayer" style=""><title>Layer 1</title><ellipse cx="354.1300048828125" cy="741.27001953125" rx="176.10000610351562" ry="33.36000061035156" fill="#00c3da" opacity="0.1" id="svg_1"/><path d="M586.5499966430664,111.40000122070313 c-64.72,-2.24 -126.36,-23.14 -185.22,-46 S284.1699966430664,17.220001220703125 220.99999664306642,5.110001220703126 C180.36999664306643,-2.6799987792968736 133.8999966430664,-3.789998779296873 101.16999664306641,17.970001220703125 c-31.51,21 -41.69,57.15 -47.16,90.72 c-4.12,25.26 -6.54,51.85 4.74,75.5 c7.84,16.42 21.74,30.22 31.36,45.95 c33.47,54.72 9.81,122.2 -26.45,175.63 c-17,25.06 -36.75,49 -49.88,75.65 S-5.4200033569335915,538.7100012207031 6.069996643066403,565.9700012207031 c11.38,27 38.51,47.24 67.9,61.49 c59.69,28.95 130,37.23 198.61,41.93 c151.83,10.38 304.46,5.890000000000001 456.69,1.3800000000000001 c56.34,-1.6600000000000001 112.92,-3.35 168.34,-12.06 c30.78,-4.84 62.55,-12.52 84.9,-31.06 c28.36,-23.53 35.39,-63.37 16.38,-92.87 c-31.88,-49.5 -120,-61.79 -142.31,-114.9 c-12.26,-29.24 0.33000000000000007,-61.8 18.16,-88.91 c38.24,-58.17 102.33,-109.2 105.7,-175.68 c2.3200000000000003,-45.66 -28.49,-91.39 -76.13,-113 c-49.93,-22.65 -119.18,-19.8 -156,17.69 C710.3599966430664,98.54000122070312 643.6999966430664,113.39000122070311 586.5499966430664,111.40000122070313 z" fill="#00c3da" opacity="0.1" id="svg_2"/><path d="M535.1199966430664,361.7400012207031 l-30.63,-20.65 h0 l15.45,-23 l-80.9,-6.45 L409.9699966430664,334.1200012207031 l-36.39,-20.4 l-30.35,3.6500000000000004 l-0.36000000000000004,-8 a225.78,225.78 0 0 0 -2.51,-24.9 c0.13,-2.5 0.22000000000000003,-5.37 0.21000000000000002,-8.49 c0,-13.15 -1.78,-30.58 -9.6,-42.2 L332.7699966430664,217.60000122070312 L318.1699966430664,200.35000122070312 a110.37,110.37 0 0 1 8,-13.46 c0.5,-0.7200000000000001 1,-1.42 1.54,-2.1 c18.95,-1.37 33.9,-16.95 33.9,-36 c0,-0.8800000000000001 0,-1.7600000000000002 -0.1,-2.63 c0,-0.35000000000000003 -0.07,-0.7100000000000001 -0.11000000000000001,-1.06 c1.85,1 3.72,2 5.59,3 c0.35000000000000003,0.5 0.7500000000000001,1 1.19,1.59 l0,0 l0.09000000000000002,0.11000000000000001 l0.56,0.6900000000000002 l0.18000000000000002,0.21000000000000002 c0.2,0.24000000000000002 0.41000000000000003,0.47000000000000003 0.6200000000000001,0.7100000000000001 l0.14,0.16000000000000003 c0.53,0.5900000000000001 1.09,1.19 1.6900000000000002,1.78 a1.8,1.8 0 0 1 0.2,0.19000000000000003 l0.7500000000000001,0.7000000000000001 l0.21000000000000002,0.19000000000000003 c0.6400000000000001,0.5700000000000001 1.32,1.12 2,1.6400000000000001 l0.22000000000000003,0.16000000000000003 l0.8600000000000001,0.5900000000000001 l0.28,0.18000000000000002 c0.33000000000000007,0.2 0.6700000000000002,0.41000000000000003 1,0.6000000000000001 l0.12000000000000001,0.07 c0.39000000000000007,0.21000000000000002 0.79,0.41000000000000003 1.19,0.6000000000000001 l0.2,0.08000000000000002 q0.51,0.22000000000000003 1,0.42000000000000004 l0.31000000000000005,0.11000000000000001 c0.35000000000000003,0.12000000000000001 0.6900000000000002,0.23 1.05,0.33000000000000007 l0.22000000000000003,0.06000000000000001 c0.44000000000000006,0.11000000000000001 0.8800000000000001,0.2 1.33,0.27 h0.05000000000000001 a10.88,10.88 0 0 0 1.28,0.13 h0.29000000000000004 a11,11 0 0 0 1.15,0 h0.25 a11.85,11.85 0 0 0 1.4300000000000002,-0.17 a15.78,15.78 0 0 0 6.3,-2.26 a5.5,5.5 0 0 0 1.28,-1.19 c2,-2.62 -0.2,-5.49 -0.2,-5.49 h0 c-0.78,-1.86 -5.84,-3.17 -5.84,-3.17 s-16,-6.68 -16,-12 s-4,-32.92 -45.29,-39.23 c0,0 -26.86,-1.51 -34.41,12.870000000000001 l-0.16000000000000003,1.6800000000000002 c-2.22,1.3900000000000001 -4.06,4.18 -6.25,5 a10.21,10.21 0 0 0 -2.71,1 l0,-0.19000000000000003 h0 a2.58,2.58 0 0 0 -0.6100000000000001,0.79 a8,8 0 0 0 -0.8300000000000001,3 a11.3,11.3 0 0 1 -1.31,3.63 a8.07,8.07 0 0 1 -0.6000000000000001,0.92 h0 l-0.17,0.27 a7.3,7.3 0 0 0 3.4,-0.55 a16.93,16.93 0 0 1 -1,4 a3.3200000000000003,3.3200000000000003 0 0 0 3.08,-1.84 l0,-0.08000000000000002 l0.13,-0.18000000000000002 a8.44,8.44 0 0 0 0.6200000000000001,-1.45 l-0.11000000000000001,0.12000000000000001 c0.2,-0.6500000000000001 0.38000000000000006,-1.31 0.6000000000000001,-1.9500000000000002 a3.06,3.06 0 0 1 0.49000000000000005,-1 a2.42,2.42 0 0 1 2.07,-0.6900000000000002 l-0.41000000000000003,8.67 h0.18000000000000002 a11.83,11.83 0 0 1 -0.8800000000000001,1.82 c-1.42,2.3 -4,3.87 -4.95,6.39 a9.4,9.4 0 0 0 -0.46,3.7800000000000002 c0,0.7500000000000001 0.09000000000000002,1.51 0.15000000000000002,2.26 v-0.06000000000000001 c0.14,2 0.18000000000000002,3.9 -0.9,5.51 c-0.7400000000000001,1.1 -1.9300000000000002,1.9300000000000002 -2.34,3.18 a3.1,3.1 0 0 0 -0.15000000000000002,1.08 a12.13,12.13 0 0 0 0.6800000000000002,3.21 a0.14,0.14 0 0 0 0,-0.06000000000000001 a4.88,4.88 0 0 1 0.17,2.36 c-0.45,2 -2.88,3.67 -2.7600000000000002,5.58 a2.15,2.15 0 0 0 0.11000000000000001,0.7400000000000001 a4.05,4.05 0 0 0 2.26,2 a8.8,8.8 0 0 0 5.08,1.12 a6.68,6.68 0 0 0 1.9,-0.6500000000000001 c-0.7000000000000001,1.61 -1.42,3.2 -2.15,4.71 c-0.11000000000000001,0.24000000000000002 -0.23,0.48000000000000004 -0.35000000000000003,0.7200000000000001 c0,0 -6.18,-4.13 -9.69,4.29 a18.68,18.68 0 0 0 -2.17,5.640000000000001 a13.42,13.42 0 0 1 -0.7400000000000001,2.3200000000000003 a14.93,14.93 0 0 1 -6.68,6 c-7.16,3.2800000000000002 -36.08,39.35 -36.59,48.69 a54.49,54.49 0 0 1 -1.84,10.78 a64.15,64.15 0 0 0 -1.7200000000000002,25.49 a48.77,48.77 0 0 0 1.77,8.13 c3.07,9.33 5.12,26.74 5.12,26.74 l3.3200000000000003,30.22 a86,86 0 0 0 0.54,12.49 c-3.39,3.87 -17,20 -11.8,24.39 c4,3.46 11,2.89 14.93,2.18 c-3.31,8.19 -8.52,22.43 -9.21,32.21 c-1,14.47 1.71,33.64 6,41 s18.59,26.24 18.59,26.24 s-0.6700000000000002,25.9 4.44,35.31 s7.17,28.93 7.17,28.93 s4.77,16.48 2.38,22.54 s4.43,11.1 -2.73,15.13 s-16.32,94.86 -16.32,94.86 s-3.6900000000000004,59.53 0,62.56 a3.75,3.75 0 0 0 0.6300000000000001,0.37000000000000005 v20 s-2.56,4.2 7.85,5.05 c7.13,0.5700000000000001 27.34,1.86 39.33,2.6100000000000003 l9.29,0.5800000000000001 s22,4.38 31.72,0 s26.95,-4.28 24.39,-15.85 a32.92,32.92 0 0 0 -1.36,-4.63 c-2.81,-7.18 -7.58,-8 -16.37,-10 c-0.51,-0.11000000000000001 -1,-0.21000000000000002 -1.45,-0.29000000000000004 c-9.26,-1.61 -12.3,2.7 -17.49,-2.91 c-4.51,-4.85 -18.87,-10.28 -23.76,-12 c0.12000000000000001,-0.36000000000000004 0.27,-0.7100000000000001 0.39000000000000007,-1.08 a7.32,7.32 0 0 1 -3.71,-1.81 l13.25,0.8400000000000001 l7.890000000000001,0.49000000000000005 s18.7,3.73 27,0 s22.9,-3.63 20.72,-13.46 a28.21,28.21 0 0 0 -1.15,-3.94 c-2.39,-6.1 -6.45,-6.77 -13.92,-8.46 c-0.43000000000000005,-0.09000000000000002 -0.8300000000000001,-0.18000000000000002 -1.23,-0.25 c-7.87,-1.37 -10.45,2.29 -14.86,-2.47 c-3.7800000000000002,-4.06 -15.71,-8.61 -20,-10.16 c0,-2.22 -3,-5.38 -4.890000000000001,-8.55 c-2.22,-3.7 1.8800000000000001,-16.65 1.8800000000000001,-16.65 L315.7699966430664,603.7100012207031 a10.38,10.38 0 0 1 2.8,-0.8 s10.58,-10.1 8.19,-20.86 a69.13,69.13 0 0 1 -0.7600000000000001,-9.83 c3.48,-3.23 8.27,-8 9.63,-10.94 c2.22,-4.79 0,-28 0,-28 V444.5300012207031 l17.7,1.79 L369.3899966430664,447.9700012207031 l4.890000000000001,0.5 l16.06,1.62 l36.91,3.73 l33.26,-6.3 l14.39,-2.72 l29.59,-5.6 V366.8000012207031 zM291.5099966430664,121.83000122070314 l-2.06,-0.22000000000000003 C290.1299966430664,121.64000122070311 290.8499966430664,121.77000122070314 291.5099966430664,121.83000122070314 z" fill="url(#07c62293-c0d3-4921-8e06-4e39241449cd)" id="svg_3"/><path d="M463.32999664306635,408.7500012207031 c-10,14.31 -45.95,6.73 -45.95,6.73 l-27.86,-26.07 L385.7699966430664,385.88000122070315 l6.29,-13.36 s2,0.55 5.43,1.53 C415.4999966430664,379.2800012207031 471.7699966430664,396.7200012207031 463.32999664306635,408.7500012207031 z" fill="#efb7b9" id="svg_4"/><path d="M397.4699966430664,374.0500012207031 c-1.23,4.28 -4.6,10.69 -7.95,15.36 L385.7699966430664,385.88000122070315 l6.29,-13.36 S394.0799966430664,373.07000122070315 397.4699966430664,374.0500012207031 z" opacity="0.1" id="svg_5"/><path d="M301.9199966430664,223.39000122070314 s-25.68,11.39 -24.42,39.36 a461.14,461.14 0 0 0 5.88,53.76 s-5.25,42.09 16.61,52.94 s42.09,19.77 42.09,19.77 s34.2,3.68 38.45,5.2 s17.53,-21.72 15.08,-25.34 S361.7699966430664,357.8700012207031 357.7699966430664,351.83000122070314 s-13.25,-9.77 -13.25,-9.77 s-9.55,-5.78 -10.2,-11 s1.87,-9.11 2.51,-11.4 s2.26,-24.4 2.26,-24.4 S349.86999664306643,216.5600012207031 301.9199966430664,223.39000122070314 z" fill="#dce6f2" id="svg_6"/><path d="M318.86999664306643,315.3600012207031 s-35.23,5.9 -31.82,18.23 C287.0499966430664,333.59000122070313 299.8399966430664,320.2800012207031 318.86999664306643,315.3600012207031 z" opacity="0.1" id="svg_7"/><path d="M319.1399966430664,320.3500012207031 S299.7699966430664,336.1600012207031 303.5599966430664,336.9700012207031 S319.1399966430664,320.3500012207031 319.1399966430664,320.3500012207031 z" opacity="0.1" id="svg_8"/><path d="M328.4499966430664,325.8600012207031 s-5.19,10.63 -2,9.91 S328.4499966430664,325.8600012207031 328.4499966430664,325.8600012207031 z" opacity="0.1" id="svg_9"/><path d="M398.7699966430664,375.1800012207031 l-2.14,-0.6100000000000001 c0.6100000000000001,-2 0.78,-3.62 0.28,-4.37 c-2.45,-3.62 -33.82,-11.2 -37.81,-17.25 s-13.25,-9.77 -13.25,-9.77 s-9.55,-5.78 -10.2,-11 s1.87,-9.11 2.51,-11.4 s2.26,-24.41 2.26,-24.41 s10.75,-78.69 -37.2,-71.86 c0,0 -25.68,11.4 -24.43,39.37 a459.85,459.85 0 0 0 5.890000000000001,53.76 s-5.25,42.09 16.61,52.94 s42.09,19.77 42.09,19.77 s34.19,3.67 38.45,5.2 c1.61,0.5800000000000001 4.52,-2.41 7.37,-6.52 l1.62,1.51 l27.86,26.06 s35.95,7.59 45.95,-6.72 C473.07999664306635,397.84000122070313 416.81999664306636,380.40000122070313 398.7699966430664,375.1800012207031 z" opacity="0.1" id="svg_10"/><path d="M287.1399966430664,118.41000122070312 a8.5,8.5 0 0 0 -2.77,1.07 c-1,0.8300000000000001 -1,2.25 -1.25,3.49 a11.48,11.48 0 0 1 -2,4.78 a7.19,7.19 0 0 0 3.33,-0.55 a17.14,17.14 0 0 1 -1,4 a3.24,3.24 0 0 0 3,-1.83 a19.26,19.26 0 0 0 1.25,-3.51 a2.89,2.89 0 0 1 0.48000000000000004,-1 c0.92,-1.09 2.63,-0.6000000000000001 4.05,-0.46 a6.65,6.65 0 0 0 6.08,-2.92 c1.51,-2.29 1.6,-8.15 -2,-8.77 C292.5499966430664,112.09000122070313 290.2099966430664,117.27000122070314 287.1399966430664,118.41000122070312 z" fill="#484848" id="svg_11" class="" fill-opacity="1"/><g opacity="0.1" id="svg_12" class="" fill="#484848" fill-opacity="1"><path d="M284.2699966430664,120.71000122070313 c0.09000000000000002,-0.49000000000000005 0.15000000000000002,-1 0.26,-1.49 h0 c-0.9500000000000001,0.8300000000000001 -1,2.24 -1.25,3.49 a11,11 0 0 1 -0.5900000000000001,2.11 A11.46,11.46 0 0 0 284.2699966430664,120.71000122070313 z" id="svg_13" fill="#484848" fill-opacity="1"/><path d="M284.5899966430664,128.97000122070312 a16.63,16.63 0 0 0 1,-4 a7.16,7.16 0 0 1 -3.17,0.55 a11.57,11.57 0 0 1 -1.15,2 a7.12,7.12 0 0 0 3.3200000000000003,-0.54 a16.63,16.63 0 0 1 -1,4 a3.25,3.25 0 0 0 3,-1.83 a7.46,7.46 0 0 0 0.6000000000000001,-1.4300000000000002 A3,3 0 0 1 284.5899966430664,128.97000122070312 z" id="svg_14" fill="#484848" fill-opacity="1"/><path d="M293.36999664306643,122.17000122070311 c-1.42,-0.14 -3.14,-0.6300000000000001 -4.06,0.46 a3.09,3.09 0 0 0 -0.48000000000000004,1 c-0.09000000000000002,0.26 -0.17,0.53 -0.24000000000000002,0.8 c0.9500000000000001,-0.7500000000000001 2.49,-0.35000000000000003 3.7800000000000002,-0.22000000000000003 a6.68,6.68 0 0 0 6.08,-2.92 a5.54,5.54 0 0 0 0.6700000000000002,-1.57 A6.66,6.66 0 0 1 293.36999664306643,122.17000122070311 z" id="svg_15" fill="#484848" fill-opacity="1"/></g><polygon points="317.24 201 332.49 219.34 330.5 237.85 312.07 209 317.24 201" fill="#dce6f2" id="svg_16"/><polygon points="332.48 219.34 330.61 236.75 330.49 237.85 313.86 211.81 312.07 209 312.59 208.19 317.23 201 318.26 202.24 332.48 219.34" opacity="0.1" id="svg_17"/><path d="M340.3999966430664,176.1700012207031 c-5.16,1.48 -10.09,6.5600000000000005 -14.38,12.73 a108.65,108.65 0 0 0 -7.76,13.34 c-1.4100000000000001,2.8200000000000003 -2.6500000000000004,5.53 -3.68,7.890000000000001 l-0.7200000000000001,1.6800000000000002 c-1.7400000000000002,4.11 -2.71,6.86 -2.71,6.86 S271.6499966430664,188.97000122070312 277.8999966430664,186.97000122070312 c2.1,-0.6700000000000002 4.86,-5.17 7.59,-10.84 l0.3400000000000001,-0.7200000000000001 c1.73,-3.64 3.43,-7.7 4.94,-11.52 c3.09,-7.85 5.38,-14.67 5.38,-14.67 S356.1499966430664,171.6700012207031 340.3999966430664,176.1700012207031 z" fill="#fcd6d6" id="svg_18" class="" fill-opacity="1"/><path d="M364.0299966430664,147.55000122070314 s9.12,16.5 21.37,14.25 s7.21,-8.86 7.21,-8.86 z" fill="#444053" id="svg_19"/><path d="M346.3599966430664,718.7000012207031 c-8.08,3.6900000000000004 -26.35,0 -26.35,0 l-7.7,-0.48000000000000004 c-10,-0.6400000000000001 -26.74,-1.7200000000000002 -32.66,-2.2 c-8.64,-0.7100000000000001 -6.52,-4.25 -6.52,-4.25 V690.3800012207031 l41.92,-10.620000000000001 s16.57,5.67 21.11,10.620000000000001 c4.3100000000000005,4.72 6.83,1.09 14.52,2.45 c0.38000000000000006,0.07 0.78,0.15000000000000002 1.2,0.25 c7.3,1.6700000000000002 11.26,2.33 13.6,8.38 a28.1,28.1 0 0 1 1.13,3.9 C368.7699966430664,715.1000012207031 354.42999664306643,715.0300012207031 346.3599966430664,718.7000012207031 z" fill="#a36468" id="svg_20"/><path d="M365.4799966430664,701.4600012207031 a31.34,31.34 0 0 1 -4.72,2.42 c-5.5,2.51 -10.73,5.57 -16.29,7.94 s-11.55,4.06 -17.57,3.6100000000000003 c-3.15,-0.23 -6.37,-1 -9.38,-0.1 a21.66,21.66 0 0 0 -5.21,2.89 c-10,-0.6400000000000001 -26.74,-1.7200000000000002 -32.66,-2.2 c-8.64,-0.7100000000000001 -6.52,-4.25 -6.52,-4.25 v-2.5 c0.31000000000000005,0 0.6600000000000001,-0.09000000000000002 1.06,-0.12000000000000001 a18.88,18.88 0 0 1 6.1,0.91 c4.34,1.18 8.66,2.34 13,3.5 a10.27,10.27 0 0 1 5,-6.38 a15.94,15.94 0 0 1 8.06,-1.85 c6.73,0.09000000000000002 13.1,3.2800000000000002 19.82,3.6 a10.92,10.92 0 0 0 5.49,-0.92 c0.92,-0.46 1.73,-1.13 2.63,-1.6400000000000001 a19.2,19.2 0 0 1 4.53,-1.53 A99.76,99.76 0 0 0 351.7699966430664,700.6600012207032 c1.2,-0.47000000000000003 2.6,-1.32 2.44,-2.6 c-0.21000000000000002,-1.7000000000000002 -2.88,-1.9 -3.58,-3.46 a2,2 0 0 1 0.08000000000000002,-1.77 c0.38000000000000006,0.07 0.78,0.15000000000000002 1.2,0.25 C359.17999664306643,694.7500012207031 363.1399966430664,695.4100012207032 365.4799966430664,701.4600012207031 z" opacity="0.1" id="svg_21"/><path d="M337.8199966430664,765.5000012207031 c-9.5,4.34 -31,0 -31,0 L297.7699966430664,764.9700012207031 c-11.72,-0.7500000000000001 -31.46,-2 -38.43,-2.59 c-10.17,-0.8400000000000001 -7.67,-5 -7.67,-5 V732.1700012207032 l49.33,-12.5 s19.5,6.67 24.84,12.5 c5.07,5.55 8,1.28 17.09,2.88 c0.45,0.08000000000000002 0.92,0.18000000000000002 1.4100000000000001,0.29000000000000004 c8.59,2 13.25,2.75 16,9.870000000000001 a32.1,32.1 0 0 1 1.33,4.59 C364.1499966430664,761.2600012207031 347.3199966430664,761.1700012207032 337.8199966430664,765.5000012207031 z" fill="#a36468" id="svg_22"/><path d="M360.3199966430664,745.2100012207031 a37.23,37.23 0 0 1 -5.55,2.85 c-6.47,2.95 -12.63,6.55 -19.17,9.34 s-13.59,4.77 -20.68,4.25 c-3.7,-0.27 -7.49,-1.2 -11,-0.12000000000000001 A25.5,25.5 0 0 0 297.7699966430664,764.9700012207031 c-11.72,-0.7500000000000001 -31.46,-2 -38.43,-2.59 c-10.17,-0.8400000000000001 -7.67,-5 -7.67,-5 v-2.94 a12.5,12.5 0 0 1 1.25,-0.14 a21.94,21.94 0 0 1 7.18,1.07 l15.29,4.12 a12.1,12.1 0 0 1 5.93,-7.51 a18.66,18.66 0 0 1 9.49,-2.18 c7.92,0.11000000000000001 15.41,3.8600000000000003 23.32,4.24 A12.91,12.91 0 0 0 320.5699966430664,752.9700012207031 c1.09,-0.55 2,-1.34 3.1,-1.9300000000000002 a21.75,21.75 0 0 1 5.33,-1.8 a119.69,119.69 0 0 0 15.16,-4.92 c1.4100000000000001,-0.56 3.06,-1.56 2.87,-3.06 c-0.25,-2 -3.39,-2.24 -4.22,-4.08 a2.41,2.41 0 0 1 0.1,-2.08 c0.45,0.08000000000000002 0.92,0.18000000000000002 1.4100000000000001,0.29000000000000004 C352.9099966430664,737.3100012207032 357.5699966430664,738.0900012207031 360.3199966430664,745.2100012207031 z" opacity="0.1" id="svg_23"/><path d="M316.3199966430664,592.5100012207031 l-2.67,62.83 s-4,12.83 -1.83,16.5 s5.83,7.33 4.5,9.5 S298.98999664306643,706.9700012207031 293.8199966430664,697.9700012207031 s-10.27,-48 -10.27,-48 l4.77,-48.17 z" fill="#444053" id="svg_24"/><path d="M327.8999966430664,435.9700012207031 l7.42,9.92 V532.1700012207032 s2.17,23 0,27.75 s-13.17,14.25 -13.17,14.25 l-9.25,-47.5 l2,-50.25 z" fill="#444053" id="svg_25"/><path d="M316.3199966430664,592.5100012207031 l-2.67,62.83 s-4,12.83 -1.83,16.5 s5.83,7.33 4.5,9.5 S298.98999664306643,706.9700012207031 293.8199966430664,697.9700012207031 s-10.27,-48 -10.27,-48 l4.77,-48.17 z" opacity="0.1" id="svg_26"/><path d="M327.8999966430664,435.9700012207031 l7.42,9.92 V532.1700012207032 s2.17,23 0,27.75 s-13.17,14.25 -13.17,14.25 l-9.25,-47.5 l2,-50.25 z" opacity="0.1" id="svg_27"/><path d="M335.3199966430664,399.1700012207031 v46.67 l-8.33,36.33 s-2.67,87.67 -0.3400000000000001,98.33 s-8,20.67 -8,20.67 s-6,0.6700000000000002 -6,5.33 s-10,18 -10,18 l0.33000000000000007,26 s4.34,48.67 -2.33,58 s2.33,10.67 2.33,10.67 c-8.33,27.33 -48.33,21 -51.94,18 s0,-62 0,-62 s8.94,-90 15.94,-94 s0.3400000000000001,-9 2.67,-15 s-2.33,-22.33 -2.33,-22.33 s-2,-19.34 -7,-28.67 s-4.34,-35 -4.34,-35 s-14,-18.67 -18.16,-26 s-6.84,-26.33 -5.84,-40.67 c0.6800000000000002,-9.69 5.77,-23.8 9,-31.92 c1.55,-3.89 2.67,-6.41 2.67,-6.41 l0.9500000000000001,0.25 l54.62,14.3 z" fill="#444053" id="svg_28"/><path d="M340.3999966430664,176.1700012207031 c-5.16,1.48 -10.09,6.5600000000000005 -14.38,12.73 l-1.12,0 a35.72,35.72 0 0 1 -31,-17.93 a35.18,35.18 0 0 1 -3.14,-7.15 c3.09,-7.85 5.38,-14.67 5.38,-14.67 S356.1499966430664,171.6700012207031 340.3999966430664,176.1700012207031 z" opacity="0.1" id="svg_29" class=""/><path d="M360.6499966430664,151.1700012207031 A35.75,35.75 0 1 1 293.7699966430664,133.65000122070313 a34.93,34.93 0 0 1 3.7800000000000002,-5.46 A36.18,36.18 0 0 1 305.7699966430664,120.97000122070312 a35.75,35.75 0 0 1 54.83,27.58 C360.61999664306643,149.43000122070313 360.6499966430664,150.30000122070314 360.6499966430664,151.1700012207031 z" fill="#fcd6d6" id="svg_30" class="" stroke-width="1" fill-opacity="1"/><path d="M330.6099966430664,236.7500012207031 l-0.12000000000000001,1.1 l-16.63,-26 c-1.7400000000000002,4.11 -2.71,6.86 -2.71,6.86 S271.6499966430664,188.97000122070312 277.8999966430664,186.97000122070312 c2.1,-0.6700000000000002 4.86,-5.17 7.59,-10.84 l0.3400000000000001,-0.7200000000000001 c2.9,8.64 19.75,25.91 26.76,32.83 c0.81,0.8 1.48,1.46 2,1.94 l1.07,1 l0.56,0.56 C318.7699966430664,214.3700012207031 329.5299966430664,225.97000122070312 330.6099966430664,236.7500012207031 z" opacity="0.1" id="svg_31"/><path d="M343.0399966430664,324.9700012207031 l-1.82,58.57 L340.8999966430664,393.9700012207031 s-21.56,-2 -41.68,-4.2 c-16.2,-1.77 -31.47,-3.68 -33.82,-4.8 c-3,-1.4100000000000001 -9.43,-2.5 -14.5,-3.19 c-3.92,-0.53 -7,-0.81 -7,-0.81 s-1.15,0.3400000000000001 -2.92,0.6600000000000001 c-3.8600000000000003,0.7000000000000001 -10.64,1.27 -14.59,-2.16 c-5.05,-4.39 8.22,-20.34 11.53,-24.17 l0.7300000000000001,-0.8300000000000001 l-1.25,-11.55 L234.1499966430664,312.9700012207031 s-2,-17.25 -5,-26.5 a48.88,48.88 0 0 1 -1.73,-8.05 a64.48,64.48 0 0 1 1.6800000000000002,-25.26 a55.08,55.08 0 0 0 1.8,-10.69 c0.5,-9.25 28.75,-45 35.75,-48.25 a14.84,14.84 0 0 0 7.16,-7.14 a13.64,13.64 0 0 0 1.09,-3.11 c3,-13 10.59,-7.84 10.59,-7.84 c1.83,10.17 30.16,37.09 30.16,37.09 l0.56,0.56 c2.81,2.88 15.33,16.4 14.44,27.94 a33.87,33.87 0 0 0 1.8900000000000001,12.64 a213.75,213.75 0 0 1 9.85,56 z" fill="#dce6f2" id="svg_32"/><path d="M302.8999966430664,255.4200012207031 s-7,17 -12.25,19.75 S305.3999966430664,280.9700012207031 302.8999966430664,255.4200012207031 z" opacity="0.1" id="svg_33"/><path d="M308.1499966430664,287.1700012207031 s-16,2 -16,5 S308.1499966430664,287.1700012207031 308.1499966430664,287.1700012207031 z" opacity="0.1" id="svg_34"/><path d="M324.8999966430664,306.6700012207031 s-23.25,49.5 -29.75,51 S324.8999966430664,306.6700012207031 324.8999966430664,306.6700012207031 z" opacity="0.1" id="svg_35"/><path d="M315.2099966430664,215.73000122070312 l-19.23,8.36 L272.7699966430664,189.03000122070313 a13.64,13.64 0 0 0 1.09,-3.11 c3,-13 10.59,-7.84 10.59,-7.84 c1.83,10.17 30.16,37.09 30.16,37.09 z" opacity="0.1" id="svg_36"/><path d="M316.2099966430664,213.73000122070312 l-19.23,8.36 L273.7699966430664,187.03000122070313 a13.64,13.64 0 0 0 1.09,-3.11 c3,-13 10.59,-7.84 10.59,-7.84 c1.83,10.17 30.16,37.09 30.16,37.09 z" fill="#dce6f2" id="svg_37" class=""/><path d="M340.8999966430664,393.9700012207031 s-21.56,-2 -41.68,-4.2 l36.1,9.45 v11 c-1.58,1.4300000000000002 -2.95,2.17 -3.84,1.79 c-4.16,-1.75 -38.11,-7.25 -38.11,-7.25 s-19.72,-10 -41,-22 a16.43,16.43 0 0 1 -1.5,-0.9400000000000001 a23.64,23.64 0 0 1 -6.3,-6.3100000000000005 c-3.93,-5.69 -5.85,-13 -6.68,-20.17 a87.22,87.22 0 0 1 -0.52,-12.38 A101.51,101.51 0 0 1 238.6499966430664,328.9700012207031 a460.08,460.08 0 0 1 -3,-54 c0.25,-28 26.5,-38 26.5,-38 c48.25,-4.25 33.29,73.75 33.29,73.75 s-2.79,22 -3.55,24.25 s-3.49,6 -3.12,11.25 s9.59,11.53 9.59,11.53 s9,4.22 12.71,10.47 c2.7,4.61 20.24,10.86 30.15,15.32 z" opacity="0.1" id="svg_38"/><path d="M357.0599966430664,128.97000122070312 a11.32,11.32 0 0 1 -1,4.78 a29.55,29.55 0 0 1 -1.78,3.56 a16.4,16.4 0 0 1 -4.38,5.44 c-2.31,1.6500000000000001 -5.23,2.11 -8,2.7800000000000002 s-5.65,1.7400000000000002 -7.23,4.1 a14.34,14.34 0 0 0 -1.6900000000000002,4.9 a10.54,10.54 0 0 1 -2,4.74 a3.93,3.93 0 0 1 -4.68,1.12 a4.73,4.73 0 0 1 -1.81,-2.33 c-1.1400000000000001,-2.5700000000000003 -1.4300000000000002,-5.42 -1.8900000000000001,-8.19 s-1.11,-5.62 -2.81,-7.85 s-4.71,-3.7 -7.38,-2.83 a7.11,7.11 0 0 0 -4,3.88 a22.24,22.24 0 0 0 -1.51,5.52 q-1.86,10.18 -4.39,20.24 a1.86,1.86 0 0 1 -0.33000000000000007,0.7600000000000001 a1.44,1.44 0 0 1 -1,0.42000000000000004 c-2.24,0.30000000000000004 -4.39,-1.27 -6.65,-1.1 a3.8200000000000003,3.8200000000000003 0 0 0 -0.6900000000000002,0.11000000000000001 a35.73,35.73 0 0 1 3.6100000000000003,-40.8 l0.18000000000000002,-0.05000000000000001 a10.78,10.78 0 0 0 4,-2.52 a42.22,42.22 0 0 0 4,-4.63 l0.8,-1 a45.61,45.61 0 0 1 7.8,-7.41 a8,8 0 0 1 2.66,-1.44 a7.88,7.88 0 0 1 2.52,-0.08000000000000002 a63.57,63.57 0 0 0 10.41,0.39000000000000007 a66.79,66.79 0 0 1 7.3100000000000005,-0.7400000000000001 c6.33,0.18000000000000002 11.73,4.65 15.73,9.55 C355.0099966430664,122.80000122070314 356.92999664306643,125.69000122070312 357.0599966430664,128.97000122070312 z" opacity="0.1" id="svg_39"/><path d="M289.0999966430664,134.60000122070312 c-1.3900000000000001,2.2800000000000002 -3.9,3.83 -4.84,6.33 c-1.3800000000000001,3.63 0.9500000000000001,8.15 -1.19,11.39 c-0.7100000000000001,1.09 -1.8800000000000001,1.9 -2.2800000000000002,3.15 c-0.6800000000000002,2.11 1.18,4.36 0.7000000000000001,6.53 s-3.34,4 -2.58,6.12 a4,4 0 0 0 2.2,2 a8.6,8.6 0 0 0 5,1.11 c2.73,-0.45 4.76,-3.13 7.53,-3.33 c2.25,-0.16000000000000003 4.4,1.4 6.640000000000001,1.11 a1.5,1.5 0 0 0 1,-0.43000000000000005 a1.73,1.73 0 0 0 0.33000000000000007,-0.7600000000000001 q2.52,-10.05 4.4,-20.24 a21.8,21.8 0 0 1 1.5,-5.52 a7.17,7.17 0 0 1 4,-3.88 c2.67,-0.8600000000000001 5.67,0.6000000000000001 7.38,2.83 s2.36,5.08 2.8200000000000003,7.85 s0.7500000000000001,5.62 1.8800000000000001,8.19 a4.78,4.78 0 0 0 1.82,2.34 c1.5,0.8700000000000001 3.52,0.18000000000000002 4.67,-1.12 a10.43,10.43 0 0 0 2,-4.75 a14.28,14.28 0 0 1 1.6900000000000002,-4.890000000000001 c1.58,-2.36 4.47,-3.43 7.23,-4.1 s5.67,-1.1400000000000001 8,-2.79 a16.46,16.46 0 0 0 4.38,-5.43 c1.48,-2.58 2.8600000000000003,-5.38 2.74,-8.35 c-0.13,-3.24 -2.05,-6.13 -4.1,-8.65 c-4,-4.9 -9.41,-9.37 -15.74,-9.54 a62.2,62.2 0 0 0 -7.3100000000000005,0.7400000000000001 a62.57,62.57 0 0 1 -10.41,-0.4 a8.18,8.18 0 0 0 -2.52,0.09000000000000002 a7.54,7.54 0 0 0 -2.6500000000000004,1.44 a45.63,45.63 0 0 0 -7.8100000000000005,7.4 a57.31,57.31 0 0 1 -4.82,5.6 a10.85,10.85 0 0 1 -4,2.5300000000000002 c-1,0.28 -2,0.08000000000000002 -2.95,0.39000000000000007 C290.8599966430664,128.49000122070314 290.4699966430664,132.34000122070313 289.0999966430664,134.60000122070312 z" fill="#484848" id="svg_40" class="" fill-opacity="1"/><path d="M385.3999966430664,161.79000122070312 c-8,1.47 -14.63,-5 -18.3,-9.72 a39.22,39.22 0 0 1 -3.07,-4.52 l27.46,5.18 l1.11,0.21000000000000002 S397.6499966430664,159.55000122070314 385.3999966430664,161.79000122070312 z" opacity="0.1" id="svg_41"/><g opacity="0.1" id="svg_42"><path d="M281.48999664306643,159.1400012207031 a8.33,8.33 0 0 0 -0.5800000000000001,-3.84 c0,0.1 -0.09000000000000002,0.2 -0.12000000000000001,0.30000000000000004 c-0.43000000000000005,1.34 0.15000000000000002,2.73 0.52,4.12 A3,3 0 0 0 281.48999664306643,159.1400012207031 z" id="svg_43"/><path d="M283.86999664306643,142.77000122070314 a22.22,22.22 0 0 0 0.08000000000000002,4.15 A22.28,22.28 0 0 0 283.86999664306643,142.77000122070314 z" id="svg_44"/><path d="M353.3199966430664,133.4200012207031 a16.4,16.4 0 0 1 -4.38,5.44 c-2.31,1.6500000000000001 -5.22,2.11 -8,2.7800000000000002 s-5.65,1.7400000000000002 -7.23,4.1 a14.41,14.41 0 0 0 -1.6900000000000002,4.9 a10.47,10.47 0 0 1 -2,4.75 c-1.15,1.3 -3.17,2 -4.67,1.12 a4.78,4.78 0 0 1 -1.82,-2.34 c-1.13,-2.5700000000000003 -1.4300000000000002,-5.41 -1.8800000000000001,-8.19 s-1.12,-5.62 -2.8200000000000003,-7.85 s-4.71,-3.7 -7.38,-2.83 a7.14,7.14 0 0 0 -4,3.88 a21.8,21.8 0 0 0 -1.5,5.52 q-1.87,10.19 -4.4,20.24 a1.73,1.73 0 0 1 -0.33000000000000007,0.7600000000000001 a1.5,1.5 0 0 1 -1,0.43000000000000005 c-2.24,0.29000000000000004 -4.39,-1.27 -6.640000000000001,-1.11 c-2.77,0.2 -4.8,2.88 -7.53,3.3200000000000003 a8.45,8.45 0 0 1 -5,-1.11 a5.35,5.35 0 0 1 -1.83,-1.3 a2.7,2.7 0 0 0 -0.37000000000000005,2.33 a3.9,3.9 0 0 0 2.2,2 a8.45,8.45 0 0 0 5,1.11 c2.73,-0.44000000000000006 4.76,-3.12 7.53,-3.3200000000000003 c2.25,-0.16000000000000003 4.4,1.4 6.640000000000001,1.11 a1.5,1.5 0 0 0 1,-0.43000000000000005 a1.73,1.73 0 0 0 0.33000000000000007,-0.7600000000000001 q2.52,-10 4.4,-20.24 a21.8,21.8 0 0 1 1.5,-5.52 a7.14,7.14 0 0 1 4,-3.88 c2.67,-0.8700000000000001 5.67,0.6000000000000001 7.38,2.83 s2.36,5.08 2.8200000000000003,7.85 s0.7500000000000001,5.62 1.8800000000000001,8.19 a4.78,4.78 0 0 0 1.82,2.34 c1.5,0.8700000000000001 3.52,0.18000000000000002 4.67,-1.12 a10.47,10.47 0 0 0 2,-4.75 a14.41,14.41 0 0 1 1.6900000000000002,-4.9 c1.58,-2.36 4.47,-3.42 7.23,-4.1 s5.67,-1.13 8,-2.7800000000000002 a16.4,16.4 0 0 0 4.38,-5.44 c1.48,-2.5700000000000003 2.8600000000000003,-5.37 2.74,-8.34 a10.74,10.74 0 0 0 -0.12000000000000001,-1.1400000000000001 A19.65,19.65 0 0 1 353.3199966430664,133.4200012207031 z" id="svg_45"/></g><path d="M356.0999966430664,133.72000122070312 a35.33,35.33 0 0 1 4.45,14.85 c-8.91,-5 -17.29,-10.49 -21.52,-12.4 c-7.37,-3.33 -34.93,-2.83 -45.29,-2.52 a34.93,34.93 0 0 1 3.7800000000000002,-5.46 A36.18,36.18 0 0 1 305.7699966430664,120.97000122070312 a35.77,35.77 0 0 1 50.38,12.73 z" opacity="0.1" id="svg_46"/><path d="M387.8999966430664,157.55000122070314 c-4.8100000000000005,1.48 -12.66,-1.3800000000000001 -20.8,-5.48 a39.22,39.22 0 0 1 -3.07,-4.52 l27.46,5.18 C393.3099966430664,153.97000122070312 393.7699966430664,155.74000122070314 387.8999966430664,157.55000122070314 z" opacity="0.1" id="svg_47"/><path d="M327.0299966430664,99.05000122070314 s-26.25,-1.5 -33.63,12.75 l-1.19,12.63 l-2,-0.22000000000000003 l-0.4,8.59 s40.12,-1.75 49.25,2.37 s37.5,24.88 48.87,21.38 s-1,-6.75 -1,-6.75 S371.2799966430664,143.1700012207031 371.2799966430664,137.97000122070312 S367.3999966430664,105.30000122070314 327.0299966430664,99.05000122070314 z" fill="#444053" id="svg_48"/><path d="M276.3999966430664,567.2500012207031 s16.75,16.25 24,15 C300.3999966430664,582.2500012207031 279.8999966430664,580.5000012207031 276.3999966430664,567.2500012207031 z" opacity="0.1" id="svg_49"/><path d="M272.8999966430664,574.7800012207031 s1.5,8.36 5.5,7.54 S272.8999966430664,574.7800012207031 272.8999966430664,574.7800012207031 z" opacity="0.1" id="svg_50"/><path d="M299.1499966430664,714.5000012207031 s-23.78,18.5 -19.77,19 S299.1499966430664,714.5000012207031 299.1499966430664,714.5000012207031 z" opacity="0.1" id="svg_51"/><polygon points="330.96 347.33 407.96 334.8 407.96 407.7 334.8 403.87 330.96 347.33" fill="#00c3da" id="svg_52"/><polygon points="330.96 347.33 407.96 334.8 407.96 407.7 334.8 403.87 330.96 347.33" opacity="0.05" id="svg_53"/><polygon points="407.96 334.8 500.3 341.71 495.19 405.15 407.96 407.7 407.96 334.8" fill="#00c3da" id="svg_54"/><polygon points="407.96 334.8 500.3 341.71 495.19 405.15 407.96 407.7 407.96 334.8" opacity="0.1" id="svg_55"/><polygon points="436.35 312.55 407.96 334.8 500.3 341.71 515.39 318.94 436.35 312.55" fill="#00c3da" id="svg_56"/><polygon points="303.08 323.03 372.4 314.59 407.96 334.8 330.96 347.33 303.08 323.03" fill="#00c3da" id="svg_57"/><polygon points="424.84 353.73 424.84 453.4 388.77 449.7 373.08 448.1 368.3 447.6 352.62 445.99 330.96 443.77 330.96 347.33 407.95 352.57 424.84 353.73" fill="#00c3da" id="svg_58"/><polygon points="500.3 341.71 500.3 438.91 471.39 444.46 457.33 447.16 424.84 453.4 424.84 353.73 500.3 341.71" fill="#00c3da" id="svg_59"/><polygon points="500.3 341.71 500.3 438.91 471.39 444.46 457.33 447.16 424.84 453.4 424.84 353.73 500.3 341.71" opacity="0.05" id="svg_60"/><polygon points="303.08 368.31 330.96 347.33 424.84 353.73 411.02 377.01 303.08 368.31" fill="#00c3da" id="svg_61"/><polygon points="303.08 368.31 330.96 347.33 424.84 353.73 411.02 377.01 303.08 368.31" fill="#fff" opacity="0.1" id="svg_62"/><polygon points="500.3 341.71 424.84 353.73 449.4 375.73 530.23 362.17 500.3 341.71" fill="#00c3da" id="svg_63"/><polygon points="500.3 341.71 424.84 353.73 449.4 375.73 530.23 362.17 500.3 341.71" fill="#fff" opacity="0.1" id="svg_64"/><polygon points="471.39 444.46 457.33 447.16 457.33 426.39 470.5 423.07 471.39 444.46" fill="#fff" opacity="0.1" id="svg_65"/><polygon points="388.77 435.96 388.77 449.7 373.08 448.1 373.08 435.96 388.77 435.96" fill="#fff" opacity="0.1" id="svg_66"/><polygon points="368.3 440.29 368.3 447.6 352.62 445.99 352.62 440.29 368.3 440.29" fill="#fff" opacity="0.1" id="svg_67"/><path d="M415.3999966430664,428.6700012207031 c-10.75,13.75 -46.25,4.25 -46.25,4.25 L342.7699966430664,405.40000122070313 l-3.58,-3.73 l7,-13 s2,0.6600000000000001 5.34,1.82 C369.2099966430664,396.6700012207031 424.44999664306636,417.1000012207031 415.3999966430664,428.6700012207031 z" opacity="0.1" id="svg_68"/><path d="M414.3999966430664,426.6700012207031 c-10.75,13.75 -46.25,4.25 -46.25,4.25 L341.7699966430664,403.40000122070313 l-3.58,-3.73 l7,-13 s2,0.6600000000000001 5.34,1.82 C368.2099966430664,394.6700012207031 423.44999664306636,415.1000012207031 414.3999966430664,426.6700012207031 z" fill="#fcd6d6" id="svg_69" class="selected" fill-opacity="1"/><path d="M350.48999664306643,388.4900012207031 c-1.46,4.2 -5.17,10.42 -8.76,14.91 l-3.58,-3.73 l7,-13 S347.1599966430664,387.33000122070314 350.48999664306643,388.4900012207031 z" opacity="0.1" id="svg_70"/><path d="M263.1499966430664,232.97000122070312 s-26.25,10 -26.5,38 a460.08,460.08 0 0 0 3,54 s-7.5,41.75 13.75,53.75 s41,22 41,22 s33.95,5.5 38.12,7.25 s18.66,-20.75 16.41,-24.5 s-33.16,-13 -36.83,-19.25 s-12.71,-10.46 -12.71,-10.46 s-9.22,-6.29 -9.59,-11.54 s2.35,-9 3.12,-11.25 s3.56,-24.25 3.56,-24.25 S311.3999966430664,228.6700012207031 263.1499966430664,232.97000122070312 z" fill="#dce6f2" id="svg_71"/><path d="M275.1499966430664,325.6700012207031 s-35.5,4 -32.75,16.5 C242.3999966430664,342.1700012207031 255.8899966430664,329.5600012207031 275.1499966430664,325.6700012207031 z" opacity="0.1" id="svg_72"/><path d="M275.1499966430664,330.6700012207031 s-20.15,14.75 -16.45,15.75 S275.1499966430664,330.6700012207031 275.1499966430664,330.6700012207031 z" opacity="0.1" id="svg_73"/><path d="M284.1499966430664,336.6700012207031 s-5.75,10.34 -2.5,9.8 S284.1499966430664,336.6700012207031 284.1499966430664,336.6700012207031 z" opacity="0.1" id="svg_74"/><path d="M653.7699966430664,112.39000122070311 s-38,-2.29 -33.56,24.37 c0,0 -0.8900000000000001,4.71 3.38,6.85 c0,0 0.07,-2 3.9,-1.31 a17.51,17.51 0 0 0 4.13,0.2 a8.57,8.57 0 0 0 5.06,-2.09 h0 s10.69,-4.41 14.85,-21.89 c0,0 3.08,-3.8200000000000003 3,-4.8 l-6.42,2.75 s2.19,4.63 0.46,8.48 c0,0 -0.2,-8.31 -1.44,-8.12 c-0.25,0 -3.33,1.61 -3.33,1.61 s3.77,8.06 0.92,13.93 c0,0 1.08,-9.94 -2.1,-13.35 l-4.52,2.64 s4.41,8.33 1.42,15.13 c0,0 0.77,-10.43 -2.37,-14.49 l-4.1,3.19 s4.15,8.22 1.62,13.86 c0,0 -0.33000000000000007,-12.14 -2.51,-13.06 c0,0 -3.58,3.16 -4.12,4.46 c0,0 2.83,6 1.07,9.11 c0,0 -1.08,-8.09 -2,-8.13 c0,0 -3.5700000000000003,5.36 -3.94,9 a19.46,19.46 0 0 1 3.07,-9.54 a10.71,10.71 0 0 0 -5.46,2.83 s0.55,-3.79 6.34,-4.12 c0,0 3,-4.07 3.74,-4.32 c0,0 -5.76,-0.48000000000000004 -9.25,1.07 c0,0 3.07,-3.5700000000000003 10.31,-2 l4,-3.3 s-7.58,-1 -10.8,0.11000000000000001 c0,0 3.7,-3.16 11.89,-0.8600000000000001 l4.4,-2.63 s-6.46,-1.4 -10.31,-0.8900000000000001 c0,0 4.06,-2.19 11.6,0.18000000000000002 l3.15,-1.4100000000000001 s-4.74,-0.93 -6.12,-1.08 s-1.46,-0.53 -1.46,-0.53 a16.36,16.36 0 0 1 8.89,1 S653.9099966430664,112.81000122070313 653.7699966430664,112.39000122070311 z" fill="#00c3da" id="svg_75"/><path d="M769.2299966430664,245.73000122070312 s-38,-2.29 -33.56,24.37 c0,0 -0.8900000000000001,4.71 3.38,6.85 c0,0 0.07,-2 3.91,-1.31 a17.51,17.51 0 0 0 4.13,0.2 a8.56,8.56 0 0 0 5,-2.08 h0 s10.7,-4.42 14.86,-21.9 c0,0 3.07,-3.81 2.95,-4.79 l-6.42,2.74 s2.19,4.63 0.47000000000000003,8.48 c0,0 -0.21000000000000002,-8.31 -1.44,-8.12 c-0.25,0 -3.34,1.61 -3.34,1.61 s3.7800000000000002,8.07 0.93,13.93 c0,0 1.08,-9.94 -2.11,-13.35 L753.5199966430664,254.97000122070312 s4.41,8.33 1.42,15.13 c0,0 0.77,-10.43 -2.37,-14.49 l-4.09,3.2 s4.14,8.21 1.62,13.85 c0,0 -0.33000000000000007,-12.14 -2.51,-13.06 c0,0 -3.58,3.16 -4.13,4.46 c0,0 2.84,6 1.08,9.11 c0,0 -1.08,-8.09 -2,-8.13 c0,0 -3.5700000000000003,5.36 -3.94,9 a19.52,19.52 0 0 1 3.08,-9.54 a10.76,10.76 0 0 0 -5.47,2.83 s0.56,-3.79 6.35,-4.12 c0,0 2.95,-4.07 3.74,-4.32 c0,0 -5.76,-0.48000000000000004 -9.25,1.07 c0,0 3.07,-3.5700000000000003 10.3,-1.9500000000000002 l4,-3.3 s-7.59,-1 -10.8,0.11000000000000001 c0,0 3.7,-3.16 11.89,-0.8600000000000001 l4.4,-2.63 s-6.47,-1.3900000000000001 -10.32,-0.8900000000000001 c0,0 4.07,-2.19 11.61,0.18000000000000002 l3.15,-1.4100000000000001 s-4.74,-0.93 -6.13,-1.08 s-1.46,-0.53 -1.46,-0.53 a16.39,16.39 0 0 1 8.9,1 S769.3499966430664,246.15000122070313 769.2299966430664,245.73000122070312 z" fill="#00c3da" opacity="0.1" id="svg_76"/><path d="M538.3799966430664,222.0600012207031 s8.75,-37.09 -18.29,-37.22 c0,0 -4.49,-1.6800000000000002 -7.32,2.16 c0,0 1.9300000000000002,0.41000000000000003 0.6200000000000001,4.07 a17.8,17.8 0 0 0 -0.9,4 a8.59,8.59 0 0 0 1.19,5.33 h0 s2.5300000000000002,11.3 19,18.38 c0,0 3.24,3.68 4.22,3.72 l-1.6,-6.79 s-4.94,1.37 -8.44,-1 c0,0 8.23,1.21 8.24,0 c0,-0.25 -1,-3.56 -1,-3.56 s-8.59,2.34 -13.89,-1.47 c0,0 9.61,2.7600000000000002 13.52,0.21000000000000002 L531.9299966430664,204.97000122070312 s-9,2.93 -15.16,-1.18 c0,0 10.15,2.54 14.69,0.14 l-2.45,-4.58 s-8.8,2.68 -13.93,-0.77 c0,0 12,1.7400000000000002 13.3,-0.24000000000000002 c0,0 -2.5,-4.07 -3.6900000000000004,-4.83 c0,0 -6.36,1.78 -9.16,-0.49000000000000005 c0,0 8.15,0.31000000000000005 8.34,-0.55 c0,0 -4.67,-4.43 -8.23,-5.43 a19.6,19.6 0 0 1 8.89,4.66 a10.79,10.79 0 0 0 -1.86,-5.87 s3.64,1.2 3,7 c0,0 3.5,3.6 3.6100000000000003,4.42 c0,0 1.45,-5.59 0.52,-9.3 c0,0 3,3.64 0.17,10.49 l2.56,4.55 s2.3200000000000003,-7.3 1.73,-10.66 c0,0 2.49,4.18 -1.18,11.86 l1.85,4.79 s2.47,-6.14 2.63,-10 c0,0 1.47,4.38 -2.16,11.41 l0.8600000000000001,3.34 s1.7200000000000002,-4.51 2.1,-5.85 s0.77,-1.35 0.77,-1.35 a16.38,16.38 0 0 1 -2.49,8.6 S537.9499966430664,222.1100012207031 538.3799966430664,222.0600012207031 z" fill="#00c3da" opacity="0.1" id="svg_77"/><path d="M455.1599966430664,234.70000122070314 s-30.52,-22.83 -41.43,1.9 c0,0 -3.33,3.45 -0.9400000000000001,7.58 c0,0 1.1400000000000001,-1.61 4,1.06 a17.51,17.51 0 0 0 3.34,2.44 a8.58,8.58 0 0 0 5.37,1 h0 s11.36,2.19 24.44,-10.12 c0,0 4.67,-1.5 5.11,-2.38 L448.1599966430664,234.97000122070312 s-0.7200000000000001,5.07 -4.27,7.34 c0,0 4.39,-7.06 3.25,-7.57 c-0.23,-0.11000000000000001 -3.67,-0.5 -3.67,-0.5 s-1.28,8.82 -6.88,12.15 c0,0 6.37,-7.71 5.58,-12.31 l-5.23,-0.28 s-0.8900000000000001,9.39 -7.13,13.43 c0,0 6.37,-8.29 6,-13.41 l-5.18,0.42000000000000004 s-1.05,9.13 -6.26,12.45 c0,0 6.39,-10.32 5.08,-12.28 c0,0 -4.73,0.6700000000000002 -5.9,1.45 c0,0 -0.91,6.54 -4.11,8.2 c0,0 3.55,-7.35 2.83,-7.86 c0,0 -5.93,2.51 -8.26,5.37 a19.53,19.53 0 0 1 7.82,-6.28 a10.77,10.77 0 0 0 -6.12,-0.6400000000000001 s2.54,-2.8600000000000003 7.5600000000000005,0.05000000000000001 c0,0 4.7,-1.77 5.5,-1.55 c0,0 -4.55,-3.5700000000000003 -8.32,-4.19 c0,0 4.54,-1.3 9.69,4 l5.19,-0.53 s-5.77,-5 -9.08,-5.84 c0,0 4.83,-0.6100000000000001 10.4,5.8100000000000005 l5.12,0.23 s-4.63,-4.72 -8.12,-6.42 c0,0 4.59,0.4 9.59,6.53 l3.41,0.55 s-3.45,-3.38 -4.53,-4.26 s-0.93,-1.25 -0.93,-1.25 a16.43,16.43 0 0 1 6.890000000000001,5.72 S455.0299966430664,235.1100012207031 455.1599966430664,234.70000122070314 z" fill="#00c3da" opacity="0.1" id="svg_78"/><path d="M556.7699966430664,22.59000122070313 s-30.52,-22.84 -41.43,1.9 c0,0 -3.33,3.45 -0.9400000000000001,7.58 c0,0 1.1400000000000001,-1.61 4,1.06 a17.79,17.79 0 0 0 3.35,2.43 a8.57,8.57 0 0 0 5.37,1 h0 s11.36,2.19 24.44,-10.13 c0,0 4.67,-1.49 5.1,-2.38 L549.7699966430664,22.860001220703126 s-0.7100000000000001,5.07 -4.27,7.34 c0,0 4.4,-7.06 3.26,-7.57 c-0.23,-0.11000000000000001 -3.67,-0.5 -3.67,-0.5 S543.7699966430664,30.970001220703125 538.1699966430664,34.28000122070313 c0,0 6.36,-7.71 5.58,-12.31 l-5.23,-0.28 s-0.9,9.39 -7.13,13.42 c0,0 6.37,-8.29 6,-13.41 l-5.17,0.42000000000000004 s-1.06,9.14 -6.27,12.46 c0,0 6.4,-10.32 5.09,-12.28 c0,0 -4.73,0.6700000000000002 -5.9,1.45 c0,0 -0.91,6.54 -4.11,8.2 c0,0 3.55,-7.35 2.83,-7.87 c0,0 -5.93,2.52 -8.26,5.38 a19.44,19.44 0 0 1 7.82,-6.28 a10.7,10.7 0 0 0 -6.13,-0.6400000000000001 s2.55,-2.8600000000000003 7.57,0.05000000000000001 c0,0 4.7,-1.78 5.5,-1.55 c0,0 -4.55,-3.5700000000000003 -8.32,-4.2 c0,0 4.53,-1.29 9.68,4 l5.19,-0.53 s-5.76,-5 -9.08,-5.85 c0,0 4.83,-0.6000000000000001 10.41,5.82 l5.12,0.22000000000000003 s-4.63,-4.72 -8.13,-6.41 c0,0 4.6,0.4 9.6,6.53 l3.4,0.55 S544.7699966430664,17.830001220703124 543.6899966430664,16.970001220703125 s-0.93,-1.24 -0.93,-1.24 a16.4,16.4 0 0 1 6.890000000000001,5.72 S556.5999966430664,22.970001220703125 556.7699966430664,22.59000122070313 z" fill="#00c3da" opacity="0.1" id="svg_79"/><path d="M673.3899966430664,51.52000122070312 s-12.2,-36.11 -35.21,-21.92 c0,0 -4.7,1 -5.07,5.71 c0,0 1.85,-0.6800000000000002 2.67,3.12 a18,18 0 0 0 1.37,3.91 a8.66,8.66 0 0 0 3.84,3.89 h0 s8.12,8.25 25.88,5.52 c0,0 4.69,1.42 5.55,0.93 l-5,-4.91 s-3.46,3.77 -7.68,3.62 c0,0 7.63,-3.3200000000000003 7,-4.39 c-0.13,-0.21000000000000002 -2.74,-2.48 -2.74,-2.48 s-6.06,6.53 -12.56,6.1 c0,0 9.61,-2.74 11.57,-7 l-4.14,-3.19 s-6.06,7.22 -13.49,7 c0,0 10,-3.21 12.53,-7.65 l-4.5,-2.59 s-6,6.93 -12.22,6.71 c0,0 11.12,-4.87 11.15,-7.23 c0,0 -4.27,-2.13 -5.68,-2.15 c0,0 -4.46,4.87 -8,4.43 c0,0 7.08,-4.05 6.78,-4.88 c0,0 -6.3,-1.29 -9.85,-0.25 a19.49,19.49 0 0 1 10,-0.7500000000000001 a10.79,10.79 0 0 0 -4.69,-4 s3.72,-0.91 6.21,4.33 c0,0 4.88,1.21 5.4,1.84 c0,0 -1.7200000000000002,-5.51 -4.47,-8.17 c0,0 4.47,1.51 5.69,8.82 l4.58,2.5 s-1.8900000000000001,-7.41 -4.17,-10 c0,0 4.33,2.24 5.27,10.69 l4.1,3.09 s-1.1400000000000001,-6.52 -3.06,-9.9 c0,0 3.56,2.94 4.2,10.83 l2.49,2.38 s-0.92,-4.74 -1.3,-6.08 S665.7699966430664,37.970001220703125 665.7699966430664,37.970001220703125 a16.49,16.49 0 0 1 2.43,8.620000000000001 S673.0399966430664,51.78000122070313 673.3899966430664,51.52000122070312 z" fill="#00c3da" opacity="0.1" id="svg_80"/><path d="M593.7699966430664,53.30000122070312 S555.8699966430664,49.080001220703124 558.9999966430664,75.97000122070312 c0,0 -1.13,4.66 3,7 c0,0 0.17,-2 4,-1.1 a18.4,18.4 0 0 0 4.12,0.41000000000000003 a8.6,8.6 0 0 0 5.15,-1.83 h0 s10.91,-3.87 16,-21.12 c0,0 3.26,-3.6500000000000004 3.19,-4.640000000000001 l-6.55,2.42 s2,4.73 0,8.49 c0,0 0.21000000000000002,-8.31 -1,-8.18 c-0.25,0 -3.41,1.44 -3.41,1.44 s3.36,8.25 0.22000000000000003,14 c0,0 1.58,-9.88 -1.4300000000000002,-13.44 l-4.65,2.4 s4,8.55 0.6500000000000001,15.19 c0,0 1.3,-10.38 -1.6300000000000001,-14.59 l-4.25,3 s3.72,8.41 0.91,13.92 c0,0 0.29000000000000004,-12.14 -1.84,-13.17 c0,0 -3.74,3 -4.35,4.24 c0,0 2.5300000000000002,6.1 0.6200000000000001,9.15 c0,0 -0.6700000000000002,-8.13 -1.55,-8.21 c0,0 -3.84,5.17 -4.4,8.82 a19.47,19.47 0 0 1 3.56,-9.38 a10.76,10.76 0 0 0 -5.6,2.55 s0.7400000000000001,-3.75 6.54,-3.79 c0,0 3.15,-3.91 4,-4.12 c0,0 -5.73,-0.77 -9.3,0.6000000000000001 c0,0 3.25,-3.42 10.39,-1.4300000000000002 l4.21,-3.09 S567.9899966430664,59.970001220703125 564.7699966430664,60.970001220703125 c0,0 3.8600000000000003,-3 11.92,-0.25 l4.53,-2.41 s-6.39,-1.7200000000000002 -10.26,-1.4100000000000001 c0,0 4.17,-2 11.58,0.77 l3.22,-1.25 s-4.69,-1.17 -6.07,-1.3900000000000001 s-1.4300000000000002,-0.6000000000000001 -1.4300000000000002,-0.6000000000000001 a16.45,16.45 0 0 1 8.84,1.44 S593.8399966430665,53.720001220703125 593.7699966430664,53.30000122070312 z" fill="#00c3da" opacity="0.1" id="svg_81"/><path d="M925.3699966430664,347.4700012207031 s-37.88,-4.22 -34.75,22.64 c0,0 -1.13,4.66 3,7 c0,0 0.17,-2 4,-1.11 a17.3,17.3 0 0 0 4.12,0.41000000000000003 a8.53,8.53 0 0 0 5.15,-1.83 h0 s10.91,-3.87 15.95,-21.11 c0,0 3.26,-3.66 3.19,-4.640000000000001 l-6.55,2.41 s2,4.74 0,8.5 c0,0 0.21000000000000002,-8.32 -1,-8.18 c-0.25,0 -3.41,1.4300000000000002 -3.41,1.4300000000000002 s3.36,8.25 0.22000000000000003,14 c0,0 1.58,-9.870000000000001 -1.4300000000000002,-13.44 l-4.65,2.41 s4,8.55 0.6600000000000001,15.19 c0,0 1.29,-10.38 -1.6400000000000001,-14.6 l-4.25,3 s3.72,8.41 0.91,13.91 c0,0 0.29000000000000004,-12.14 -1.84,-13.16 c0,0 -3.73,3 -4.35,4.24 c0,0 2.54,6.1 0.6200000000000001,9.15 c0,0 -0.6700000000000002,-8.13 -1.55,-8.21 c0,0 -3.84,5.17 -4.4,8.82 a19.47,19.47 0 0 1 3.56,-9.38 a10.67,10.67 0 0 0 -5.6,2.55 s0.7400000000000001,-3.7600000000000002 6.54,-3.8 c0,0 3.16,-3.91 4,-4.11 c0,0 -5.73,-0.78 -9.3,0.5900000000000001 c0,0 3.25,-3.41 10.4,-1.42 l4.2,-3.09 s-7.52,-1.42 -10.79,-0.44000000000000006 c0,0 3.8600000000000003,-3 11.92,-0.26 l4.53,-2.4 s-6.39,-1.7200000000000002 -10.26,-1.4100000000000001 c0,0 4.17,-2 11.58,0.77 l3.22,-1.26 s-4.69,-1.17 -6.07,-1.3800000000000001 s-1.4300000000000002,-0.6000000000000001 -1.4300000000000002,-0.6000000000000001 a16.39,16.39 0 0 1 8.84,1.4300000000000002 S925.4699966430665,347.90000122070313 925.3699966430664,347.4700012207031 z" fill="#00c3da" opacity="0.1" id="svg_82"/><path d="M983.2799966430664,382.8500012207031 s-37.88,-4.21 -34.75,22.64 c0,0 -1.12,4.66 3,7 c0,0 0.17,-2 4,-1.1 a17.65,17.65 0 0 0 4.11,0.4 A8.64,8.64 0 0 0 964.7699966430664,409.9700012207031 h0 s10.9,-3.87 15.94,-21.12 c0,0 3.27,-3.6500000000000004 3.19,-4.640000000000001 l-6.55,2.41 s2,4.74 0,8.5 c0,0 0.21000000000000002,-8.31 -1,-8.18 c-0.25,0 -3.41,1.4300000000000002 -3.41,1.4300000000000002 s3.36,8.25 0.22000000000000003,14 c0,0 1.58,-9.870000000000001 -1.4300000000000002,-13.43 l-4.65,2.4 s4,8.55 0.6600000000000001,15.19 c0,0 1.29,-10.38 -1.6400000000000001,-14.59 l-4.25,3 s3.72,8.41 0.92,13.92 c0,0 0.28,-12.15 -1.85,-13.17 c0,0 -3.73,3 -4.35,4.24 c0,0 2.54,6.1 0.6200000000000001,9.15 c0,0 -0.6700000000000002,-8.13 -1.55,-8.21 c0,0 -3.84,5.17 -4.39,8.82 a19.52,19.52 0 0 1 3.55,-9.38 a10.76,10.76 0 0 0 -5.6,2.55 s0.7500000000000001,-3.7600000000000002 6.55,-3.79 c0,0 3.15,-3.91 4,-4.12 c0,0 -5.73,-0.77 -9.3,0.6000000000000001 c0,0 3.25,-3.42 10.4,-1.4300000000000002 l4.2,-3.09 s-7.52,-1.42 -10.79,-0.44000000000000006 c0,0 3.8600000000000003,-3 11.92,-0.25 l4.53,-2.41 s-6.39,-1.7200000000000002 -10.26,-1.4100000000000001 c0,0 4.17,-2 11.58,0.77 l3.22,-1.25 s-4.69,-1.17 -6.06,-1.3900000000000001 s-1.44,-0.6000000000000001 -1.44,-0.6000000000000001 a16.45,16.45 0 0 1 8.84,1.44 S983.3799966430663,383.2800012207031 983.2799966430664,382.8500012207031 z" fill="#00c3da" opacity="0.1" id="svg_83"/><path d="M854.7099966430665,84.84000122070313 s-30.52,-22.83 -41.43,1.9 c0,0 -3.33,3.45 -0.9400000000000001,7.58 c0,0 1.1400000000000001,-1.61 4,1.06 a17.51,17.51 0 0 0 3.34,2.44 a8.59,8.59 0 0 0 5.37,1 h0 s11.36,2.19 24.45,-10.12 c0,0 4.66,-1.5 5.1,-2.38 l-6.87,-1.24 s-0.7200000000000001,5.07 -4.27,7.34 c0,0 4.39,-7.06 3.25,-7.57 c-0.23,-0.11000000000000001 -3.66,-0.5 -3.66,-0.5 s-1.29,8.82 -6.890000000000001,12.15 c0,0 6.37,-7.71 5.58,-12.31 l-5.23,-0.28 s-0.8900000000000001,9.39 -7.13,13.43 c0,0 6.38,-8.29 6,-13.41 l-5.18,0.42000000000000004 s-1,9.13 -6.26,12.45 c0,0 6.4,-10.32 5.08,-12.28 c0,0 -4.73,0.6700000000000002 -5.9,1.45 c0,0 -0.9,6.54 -4.1,8.2 c0,0 3.54,-7.35 2.8200000000000003,-7.86 c0,0 -5.93,2.51 -8.26,5.37 a19.53,19.53 0 0 1 7.82,-6.28 a10.77,10.77 0 0 0 -6.12,-0.6400000000000001 s2.55,-2.8600000000000003 7.57,0.05000000000000001 c0,0 4.69,-1.77 5.49,-1.55 c0,0 -4.55,-3.5700000000000003 -8.32,-4.19 c0,0 4.54,-1.3 9.69,4 l5.19,-0.53 s-5.76,-5 -9.08,-5.84 c0,0 4.83,-0.6100000000000001 10.4,5.8100000000000005 l5.13,0.23 s-4.640000000000001,-4.72 -8.13,-6.42 c0,0 4.6,0.4 9.59,6.53 l3.41,0.55 s-3.45,-3.38 -4.53,-4.26 S840.7699966430664,77.97000122070312 840.7699966430664,77.97000122070312 a16.44,16.44 0 0 1 6.88,5.72 S854.5799966430664,85.25000122070313 854.7099966430665,84.84000122070313 z" fill="#00c3da" opacity="0.1" id="svg_84"/><path d="M878.2899966430664,249.66000122070312 S867.7699966430664,213.03000122070313 844.1099966430664,226.1800012207031 c0,0 -4.74,0.7300000000000001 -5.33,5.47 c0,0 1.8800000000000001,-0.5900000000000001 2.5300000000000002,3.24 a17.73,17.73 0 0 0 1.2,4 A8.59,8.59 0 0 0 846.1699966430664,242.97000122070312 h0 s7.74,8.6 25.6,6.68 c0,0 4.62,1.62 5.5,1.18 l-4.73,-5.14 s-3.63,3.62 -7.83,3.2800000000000002 c0,0 7.76,-3 7.16,-4.07 c-0.12000000000000001,-0.22000000000000003 -2.62,-2.6100000000000003 -2.62,-2.6100000000000003 s-6.34,6.26 -12.82,5.53 c0,0 9.73,-2.3 11.870000000000001,-6.44 l-4,-3.38 s-6.38,6.94 -13.79,6.4 c0,0 10.08,-2.77 12.86,-7.08 l-4.38,-2.79 s-6.35,6.65 -12.51,6.15 c0,0 11.33,-4.37 11.47,-6.72 c0,0 -4.18,-2.3200000000000003 -5.59,-2.4 c0,0 -4.67,4.66 -8.22,4.06 c0,0 7.26,-3.73 7,-4.57 c0,0 -6.24,-1.57 -9.83,-0.7000000000000001 a19.51,19.51 0 0 1 10,-0.29000000000000004 a10.73,10.73 0 0 0 -4.5,-4.2 s3.7600000000000002,-0.7500000000000001 6,4.6 c0,0 4.8100000000000005,1.42 5.3100000000000005,2.08 c0,0 -1.47,-5.59 -4.1,-8.36 c0,0 4.4,1.7000000000000002 5.29,9.06 l4.46,2.71 s-1.56,-7.5 -3.72,-10.14 c0,0 4.22,2.43 4.79,10.91 l4,3.27 s-0.8500000000000001,-6.5600000000000005 -2.6100000000000003,-10 c0,0 3.43,3.1 3.71,11 l2.38,2.5 s-0.7000000000000001,-4.78 -1,-6.14 s0,-1.55 0,-1.55 a16.39,16.39 0 0 1 2.05,8.72 S877.9299966430664,249.90000122070313 878.2899966430664,249.66000122070312 z" fill="#00c3da" opacity="0.1" id="svg_85"/><path d="M643.8699966430664,332.20000122070314 s-20.43,-32.18 -39.4,-12.92 c0,0 -4.34,2 -3.58,6.75 c0,0 1.6500000000000001,-1.1 3.35,2.4 a17.12,17.12 0 0 0 2.26,3.46 a8.54,8.54 0 0 0 4.65,2.88 h0 s9.85,6.08 26.45,-0.8 c0,0 4.890000000000001,0.26 5.61,-0.41000000000000003 l-6,-3.6 s-2.47,4.5 -6.6,5.35 c0,0 6.62,-5 5.73,-5.92 c-0.17,-0.18000000000000002 -3.25,-1.7600000000000002 -3.25,-1.7600000000000002 s-4.33,7.78 -10.75,8.91 c0,0 8.69,-4.95 9.59,-9.53 l-4.79,-2.11 s-4.17,8.45 -11.43,10 c0,0 8.9,-5.49 10.35,-10.41 l-5,-1.44 s-4.22,8.17 -10.27,9.42 c0,0 9.64,-7.38 9.11,-9.68 c0,0 -4.66,-1.05 -6,-0.7300000000000001 c0,0 -3.17,5.79 -6.75,6.21 c0,0 5.92,-5.62 5.43,-6.36 c0,0 -6.43,0.25 -9.63,2.1 a19.46,19.46 0 0 1 9.54,-3.1 a10.73,10.73 0 0 0 -5.49,-2.77 s3.39,-1.77 7,2.73 c0,0 5,0 5.69,0.5 c0,0 -3,-5 -6.29,-6.87 c0,0 4.7,0.4 7.62,7.21 l5.05,1.34 s-3.6100000000000003,-6.75 -6.42,-8.68 c0,0 4.73,1.1400000000000001 7.66,9.13 l4.72,2 s-2.66,-6.05 -5.33,-8.88 c0,0 4.16,2 6.65,9.51 l3,1.73 s-2,-4.39 -2.71,-5.6 s-0.43000000000000005,-1.49 -0.43000000000000005,-1.49 a16.4,16.4 0 0 1 4.41,7.79 S643.5999966430664,332.5400012207031 643.8699966430664,332.20000122070314 z" fill="#00c3da" opacity="0.1" id="svg_86"/><path d="M778.1399966430664,167.78000122070313 s-19.43,-32.79 -39,-14.13 c0,0 -4.4,1.9 -3.7800000000000002,6.640000000000001 c0,0 1.6700000000000002,-1.06 3.27,2.49 a17.28,17.28 0 0 0 2.15,3.54 a8.49,8.49 0 0 0 4.5600000000000005,3 h0 s9.65,6.38 26.46,0 c0,0 4.88,0.41000000000000003 5.62,-0.24000000000000002 l-5.87,-3.7800000000000002 s-2.6,4.41 -6.76,5.14 c0,0 6.77,-4.83 5.92,-5.74 c-0.18000000000000002,-0.19000000000000003 -3.2,-1.87 -3.2,-1.87 s-4.57,7.65 -11,8.58 c0,0 8.84,-4.68 9.870000000000001,-9.22 L761.6599966430664,159.97000122070312 s-4.43,8.33 -11.74,9.66 c0,0 9.07,-5.21 10.67,-10.08 l-4.94,-1.6 s-4.48,8 -10.56,9.1 c0,0 9.86,-7.08 9.4,-9.39 c0,0 -4.62,-1.2 -6,-0.92 c0,0 -3.35,5.69 -6.94,6 c0,0 6.09,-5.42 5.63,-6.18 c0,0 -6.44,0.05000000000000001 -9.69,1.8 a19.52,19.52 0 0 1 9.63,-2.8 a10.75,10.75 0 0 0 -5.41,-2.94 s3.45,-1.6700000000000002 7,2.94 c0,0 5,0.17 5.67,0.6800000000000002 c0,0 -2.83,-5 -6.07,-7.06 c0,0 4.68,0.54 7.39,7.44 l5,1.5 s-3.39,-6.86 -6.15,-8.88 c0,0 4.7,1.29 7.38,9.36 l4.65,2.17 s-2.47,-6.13 -5,-9 c0,0 4.09,2.13 6.36,9.71 l2.93,1.82 s-1.8800000000000001,-4.45 -2.54,-5.68 s-0.38000000000000006,-1.5 -0.38000000000000006,-1.5 a16.43,16.43 0 0 1 4.17,7.92 S777.8499966430664,168.1100012207031 778.1399966430664,167.78000122070313 z" fill="#00c3da" id="svg_87"/><path d="M655.2099966430665,236.73000122070312 s1,-38.1 -25.47,-32.73 c0,0 -4.74,-0.7300000000000001 -6.74,3.6100000000000003 c0,0 2,0 1.44,3.85 a17.56,17.56 0 0 0 -0.06000000000000001,4.14 a8.55,8.55 0 0 0 2.25,5 h0 s4.77,10.54 22.38,14.12 c0,0 3.91,2.95 4.890000000000001,2.79 l-3,-6.32 s-4.55,2.34 -8.46,0.7500000000000001 c0,0 8.3,-0.49000000000000005 8.07,-1.71 c0,-0.25 -1.7200000000000002,-3.29 -1.7200000000000002,-3.29 s-7.94,4.05 -13.89,1.3900000000000001 c0,0 10,0.7500000000000001 13.27,-2.54 l-2.79,-4.43 s-8.18,4.68 -15.08,1.92 c0,0 10.45,0.42000000000000004 14.41,-2.85 l-3.33,-4 s-8.07,4.42 -13.79,2.08 c0,0 12.12,-0.7300000000000001 13,-2.94 c0,0 -3.2800000000000002,-3.47 -4.6,-4 c0,0 -5.86,3 -9.06,1.3800000000000001 c0,0 8,-1.34 8.05,-2.23 c0,0 -5.47,-3.39 -9.16,-3.64 a19.47,19.47 0 0 1 9.65,2.7600000000000002 a10.75,10.75 0 0 0 -3,-5.37 s3.81,0.43000000000000005 4.33,6.2 c0,0 4.17,2.8200000000000003 4.44,3.6 c0,0 0.29000000000000004,-5.77 -1.3800000000000001,-9.21 c0,0 3.68,2.95 2.3,10.23 l3.43,3.94 s0.78,-7.62 -0.47000000000000003,-10.79 c0,0 3.2800000000000002,3.59 1.26,11.85 l2.77,4.3100000000000005 s1.18,-6.51 0.55,-10.34 c0,0 2.3200000000000003,4 0.2,11.61 l1.52,3.1 s0.77,-4.77 0.8700000000000001,-6.16 s0.48000000000000004,-1.48 0.48000000000000004,-1.48 a16.42,16.42 0 0 1 -0.6900000000000002,8.93 S654.7699966430664,236.8600012207031 655.2099966430665,236.73000122070312 z" fill="#00c3da" id="svg_88"/><ellipse cx="698.969970703125" cy="716.2999877929688" rx="26.93000030517578" ry="4.550000190734863" fill="#00c3da" opacity="0.1" id="svg_89"/><ellipse cx="600.7999877929688" cy="785.3800048828125" rx="26.93000030517578" ry="4.550000190734863" fill="#00c3da" opacity="0.1" id="svg_90"/><ellipse cx="93.13999938964844" cy="749.989990234375" rx="26.93000030517578" ry="4.550000190734863" fill="#00c3da" opacity="0.1" id="svg_91"/><ellipse cx="805.0599975585938" cy="780.8300170898438" rx="26.93000030517578" ry="4.550000190734863" fill="#00c3da" opacity="0.1" id="svg_92"/><ellipse cx="833.0999755859375" cy="723.0999755859375" rx="40.209999084472656" ry="6.800000190734863" fill="#00c3da" id="svg_93"/><path d="M849.7699966430664,711.9700012207031 a11.61,11.61 0 0 0 3.83,-5.78 c0.5,-2.3 -0.48000000000000004,-5.05 -2.67,-5.890000000000001 c-2.46,-0.9400000000000001 -5.09,0.7600000000000001 -7.09,2.48 s-4.27,3.6900000000000004 -6.88,3.33 a10.5,10.5 0 0 0 3.24,-9.81 a4.11,4.11 0 0 0 -0.9,-2 c-1.37,-1.46 -3.84,-0.8300000000000001 -5.48,0.32000000000000006 c-5.2,3.66 -6.65,10.72 -6.68,17.08 c-0.52,-2.29 -0.08000000000000002,-4.68 -0.09000000000000002,-7 s-0.6600000000000001,-5 -2.6500000000000004,-6.22 a7.91,7.91 0 0 0 -4,-1 c-2.34,-0.08000000000000002 -4.95,0.15000000000000002 -6.54,1.86 c-2,2.12 -1.47,5.69 0.25,8 s4.35,3.8 6.77,5.42 a15.13,15.13 0 0 1 4.84,4.61 a4.7,4.7 0 0 1 0.35000000000000003,0.8200000000000001 h14.66 A40.44,40.44 0 0 0 849.7699966430664,711.9700012207031 z" fill="#00c3da" id="svg_94"/><path d="M75.0599966430664,728.8400012207031 s15.35,-0.47000000000000003 20,-3.77 s23.63,-7.23 24.78,-1.94 s23.08,26.29 5.74,26.43 s-40.29,-2.7 -44.91,-5.52 S75.0599966430664,728.8400012207031 75.0599966430664,728.8400012207031 z" fill="#a8a8a8" id="svg_95"/><path d="M125.8699966430664,747.7200012207031 c-17.34,0.14 -40.29,-2.7 -44.91,-5.52 c-3.52,-2.14 -4.92,-9.83 -5.39,-13.38 l-0.51,0 s1,12.39 5.59,15.2 s27.57,5.66 44.91,5.52 c5,0 6.73,-1.82 6.640000000000001,-4.46 C131.4999966430664,746.6900012207032 129.5899966430664,747.6900012207032 125.8699966430664,747.7200012207031 z" opacity="0.2" id="svg_96"/></g></svg>