<svg xmlns="http://www.w3.org/2000/svg" data-name="Layer 1" width="842" height="678.37637"><rect id="backgroundrect" width="100%" height="100%" x="0" y="0" fill="none" stroke="none"/><title>business_shop</title><g class="currentLayer" style=""><title>Layer 1</title><ellipse cx="426" cy="645.8763427734375" rx="416" ry="32.5" fill="#3f3d56" id="svg_1"/><path d="M650.70151,193.0006466455078 s2.59933,35.091 2.59933,36.39069 S635.1055,320.3680866455078 635.1055,320.3680866455078 s-25.99336,49.38737 0,48.0877 s18.19534,-46.788 18.19534,-46.788 l27.293,-75.38072 l-11.697000000000001,-53.28638 z" fill="#a0616a" id="svg_3"/><rect x="146.1691436767578" y="282.8320007324219" width="516.4627685546875" height="362.7982482910156" fill="#f2f2f2" id="svg_13"/><rect x="189.64495849609375" y="421.2561340332031" width="129.67788696289062" height="226.37411499023438" fill="#3f3d56" id="svg_14"/><rect x="213.63162231445312" y="434.8365783691406" width="34.93165969848633" height="32.563411712646484" fill="#f2f2f2" id="svg_15"/><rect x="260.404541015625" y="434.8365783691406" width="34.93165969848633" height="32.563411712646484" fill="#f2f2f2" id="svg_16"/><rect x="213.63162231445312" y="479.2412414550781" width="34.93165969848633" height="33.74753952026367" fill="#f2f2f2" id="svg_17"/><rect x="260.404541015625" y="479.2412414550781" width="34.93165969848633" height="33.74753952026367" fill="#f2f2f2" id="svg_18"/><circle cx="302.83203125" cy="549.68359375" r="8.245409965515137" fill="#57dbf4" id="svg_19"/><rect x="362.7986755371094" y="399.7669677734375" width="256.3574523925781" height="215.13035583496094" fill="#3f3d56" id="svg_20"/><polygon points="716.602 351.134 92.199 351.134 133.831 264.092 143.148 244.603 155.337 219.117 164.654 199.628 175.455 177.051 667.407 177.051 673.786 199.628 679.295 219.117 686.499 244.603 692.008 264.092 716.602 351.134" fill="#3f3d56" id="svg_21"/><rect x="371.7936706542969" y="488.9673767089844" width="8.994999885559082" height="55.46915054321289" fill="#57dbf4" id="svg_22"/><rect x="371.7936706542969" y="497.2127685546875" width="8.994999885559082" height="6.746250152587891" fill="#f2f2f2" id="svg_23"/><rect x="371.7936706542969" y="529.4448852539062" width="8.994999885559082" height="6.746250152587891" fill="#f2f2f2" id="svg_24"/><rect x="385.2861633300781" y="488.9673767089844" width="21.7379093170166" height="55.46915054321289" fill="#57dbf4" id="svg_25"/><rect x="385.2861633300781" y="497.2127685546875" width="21.7379093170166" height="6.746250152587891" fill="#f2f2f2" id="svg_26"/><rect x="385.2861633300781" y="529.4448852539062" width="21.7379093170166" height="6.746250152587891" fill="#f2f2f2" id="svg_27"/><rect x="412.2711486816406" y="488.9673767089844" width="8.994999885559082" height="55.46915054321289" fill="#57dbf4" id="svg_28"/><rect x="412.2711486816406" y="497.2127685546875" width="8.994999885559082" height="6.746250152587891" fill="#f2f2f2" id="svg_29"/><rect x="412.2711486816406" y="529.4448852539062" width="8.994999885559082" height="6.746250152587891" fill="#f2f2f2" id="svg_30"/><rect x="425.763671875" y="488.9673767089844" width="8.994999885559082" height="55.46915054321289" fill="#57dbf4" id="svg_31"/><rect x="425.763671875" y="497.2127685546875" width="8.994999885559082" height="6.746250152587891" fill="#f2f2f2" id="svg_32"/><rect x="425.763671875" y="529.4448852539062" width="8.994999885559082" height="6.746250152587891" fill="#f2f2f2" id="svg_33"/><rect x="263.5267028808594" y="750.8115386962891" width="8.994999885559082" height="55.46915054321289" transform="rotate(-20.654109954833984 -359.9765319824219,151.03236389160156) " fill="#57dbf4" id="svg_34"/><rect x="262.7960205078125" y="757.1184539794922" width="8.994999885559082" height="6.746250152587891" transform="rotate(-20.654109954833984 -355.02270507812506,148.05802917480472) " fill="#f2f2f2" id="svg_35"/><rect x="264.2574157714844" y="793.2275238037109" width="8.994999885559082" height="6.746250152587891" transform="rotate(-20.654109954833984 -364.9303283691406,154.00669860839855) " fill="#f2f2f2" id="svg_36"/><rect x="589.1727905273438" y="488.9673767089844" width="21.7379093170166" height="55.46915054321289" fill="#57dbf4" id="svg_37"/><rect x="589.1727905273438" y="497.2127685546875" width="21.7379093170166" height="6.746250152587891" fill="#f2f2f2" id="svg_38"/><rect x="589.1727905273438" y="529.4448852539062" width="21.7379093170166" height="6.746250152587891" fill="#f2f2f2" id="svg_39"/><rect x="574.9307250976562" y="488.9673767089844" width="8.994999885559082" height="55.46915054321289" fill="#57dbf4" id="svg_40"/><rect x="574.9307250976562" y="497.2127685546875" width="8.994999885559082" height="6.746250152587891" fill="#f2f2f2" id="svg_41"/><rect x="574.9307250976562" y="529.4448852539062" width="8.994999885559082" height="6.746250152587891" fill="#f2f2f2" id="svg_42"/><rect x="561.438232421875" y="488.9673767089844" width="8.994999885559082" height="55.46915054321289" fill="#57dbf4" id="svg_43"/><rect x="561.438232421875" y="497.2127685546875" width="8.994999885559082" height="6.746250152587891" fill="#f2f2f2" id="svg_44"/><rect x="561.438232421875" y="529.4448852539062" width="8.994999885559082" height="6.746250152587891" fill="#f2f2f2" id="svg_45"/><rect x="402.32830810546875" y="1597.8992919921875" width="55.46915054321289" height="8.994999885559082" transform="rotate(-69.34588623046875 -296.1332397460938,974.8830566406251) " fill="#57dbf4" id="svg_46"/><rect x="450.16473388671875" y="1578.377197265625" width="6.746250152587891" height="8.994999885559082" transform="rotate(-69.34588623046875 -278.3428344726562,970.441162109375) " fill="#f2f2f2" id="svg_47"/><rect x="403.21484375" y="1617.42138671875" width="6.746250152587891" height="8.994999885559082" transform="rotate(-69.34588623046875 -313.92364501953125,979.3248901367189) " fill="#f2f2f2" id="svg_48"/><rect x="362.7986755371094" y="544.4365234375" width="256.3574523925781" height="5.247079849243164" fill="#f2f2f2" id="svg_49"/><rect x="474.486572265625" y="488.9673767089844" width="47.22373962402344" height="55.46915054321289" fill="#57dbf4" id="svg_50"/><rect x="486.1051025390625" y="500.960693359375" width="23.98666000366211" height="10.494159698486328" fill="#f2f2f2" id="svg_51"/><rect x="488.7286376953125" y="399.7669677734375" width="4.497499942779541" height="47.97332000732422" fill="#f2f2f2" id="svg_52"/><circle cx="490.9773864746094" cy="447.74029541015625" r="7.495830059051514" fill="#f2f2f2" id="svg_53"/><polygon points="679.295 219.117 155.337 219.117 164.654 199.628 673.786 199.628 679.295 219.117" fill="#57dbf4" id="svg_54"/><polygon points="692.008 264.092 133.831 264.092 143.148 244.603 686.499 244.603 692.008 264.092" fill="#57dbf4" id="svg_55"/></g></svg>