<?xml version="1.0" encoding="UTF-8"?>
<svg xmlns="http://www.w3.org/2000/svg" xmlns:xlink="http://www.w3.org/1999/xlink" width="309pt" height="195pt" viewBox="0 0 309 195" version="1.1">
<g id="surface1">
<path style=" stroke:none;fill-rule:nonzero;fill:rgb(24.705882%,23.921569%,33.72549%);fill-opacity:1;" d="M 309 182.109375 C 309 175.507812 240.648438 170.152344 156.335938 170.152344 C 72.019531 170.152344 3.667969 175.507812 3.667969 182.109375 C 3.667969 188.714844 72.019531 194.066406 156.335938 194.066406 C 240.648438 194.066406 309 188.714844 309 182.109375 Z M 309 182.109375 "/>
<path style=" stroke:none;fill-rule:nonzero;fill:rgb(62.745098%,38.039216%,41.568627%);fill-opacity:1;" d="M 238.796875 15.488281 C 238.796875 15.488281 239.75 28.398438 239.75 28.875 C 239.75 29.355469 233.074219 62.347656 233.074219 62.347656 C 233.074219 62.347656 223.535156 80.519531 233.074219 80.039062 C 242.613281 79.5625 239.75 62.828125 239.75 62.828125 L 249.765625 35.09375 L 245.472656 15.488281 Z M 238.796875 15.488281 "/>
<path style=" stroke:none;fill-rule:nonzero;fill:rgb(94.901961%,94.901961%,94.901961%);fill-opacity:1;" d="M 53.640625 48.539062 L 243.175781 48.539062 L 243.175781 182.019531 L 53.640625 182.019531 Z M 53.640625 48.539062 "/>
<path style=" stroke:none;fill-rule:nonzero;fill:rgb(24.705882%,23.921569%,33.72549%);fill-opacity:1;" d="M 69.597656 99.46875 L 117.1875 99.46875 L 117.1875 182.757812 L 69.597656 182.757812 Z M 69.597656 99.46875 "/>
<path style=" stroke:none;fill-rule:nonzero;fill:rgb(94.901961%,94.901961%,94.901961%);fill-opacity:1;" d="M 78.398438 104.464844 L 91.21875 104.464844 L 91.21875 116.445312 L 78.398438 116.445312 Z M 78.398438 104.464844 "/>
<path style=" stroke:none;fill-rule:nonzero;fill:rgb(94.901961%,94.901961%,94.901961%);fill-opacity:1;" d="M 95.5625 104.464844 L 108.382812 104.464844 L 108.382812 116.445312 L 95.5625 116.445312 Z M 95.5625 104.464844 "/>
<path style=" stroke:none;fill-rule:nonzero;fill:rgb(94.901961%,94.901961%,94.901961%);fill-opacity:1;" d="M 78.398438 120.800781 L 91.21875 120.800781 L 91.21875 133.21875 L 78.398438 133.21875 Z M 78.398438 120.800781 "/>
<path style=" stroke:none;fill-rule:nonzero;fill:rgb(94.901961%,94.901961%,94.901961%);fill-opacity:1;" d="M 95.5625 120.800781 L 108.382812 120.800781 L 108.382812 133.21875 L 95.5625 133.21875 Z M 95.5625 120.800781 "/>
<path style=" stroke:none;fill-rule:nonzero;fill:rgb(34.117647%,85.882353%,95.686275%);fill-opacity:1;" d="M 114.160156 146.71875 C 114.160156 148.394531 112.804688 149.753906 111.132812 149.753906 C 109.464844 149.753906 108.109375 148.394531 108.109375 146.71875 C 108.109375 145.042969 109.464844 143.683594 111.132812 143.683594 C 112.804688 143.683594 114.160156 145.042969 114.160156 146.71875 Z M 114.160156 146.71875 "/>
<path style=" stroke:none;fill-rule:nonzero;fill:rgb(24.705882%,23.921569%,33.72549%);fill-opacity:1;" d="M 133.140625 91.5625 L 227.21875 91.5625 L 227.21875 170.710938 L 133.140625 170.710938 Z M 133.140625 91.5625 "/>
<path style=" stroke:none;fill-rule:nonzero;fill:rgb(24.705882%,23.921569%,33.72549%);fill-opacity:1;" d="M 262.980469 73.667969 L 33.835938 73.667969 L 49.113281 41.644531 L 52.53125 34.472656 L 57.007812 25.09375 L 60.425781 17.925781 L 64.390625 9.617188 L 244.925781 9.617188 L 247.269531 17.925781 L 249.289062 25.09375 L 251.933594 34.472656 L 253.957031 41.644531 Z M 262.980469 73.667969 "/>
<path style=" stroke:none;fill-rule:nonzero;fill:rgb(34.117647%,85.882353%,95.686275%);fill-opacity:1;" d="M 136.441406 124.378906 L 139.742188 124.378906 L 139.742188 144.789062 L 136.441406 144.789062 Z M 136.441406 124.378906 "/>
<path style=" stroke:none;fill-rule:nonzero;fill:rgb(94.901961%,94.901961%,94.901961%);fill-opacity:1;" d="M 136.441406 127.414062 L 139.742188 127.414062 L 139.742188 129.894531 L 136.441406 129.894531 Z M 136.441406 127.414062 "/>
<path style=" stroke:none;fill-rule:nonzero;fill:rgb(94.901961%,94.901961%,94.901961%);fill-opacity:1;" d="M 136.441406 139.273438 L 139.742188 139.273438 L 139.742188 141.753906 L 136.441406 141.753906 Z M 136.441406 139.273438 "/>
<path style=" stroke:none;fill-rule:nonzero;fill:rgb(34.117647%,85.882353%,95.686275%);fill-opacity:1;" d="M 141.394531 124.378906 L 149.371094 124.378906 L 149.371094 144.789062 L 141.394531 144.789062 Z M 141.394531 124.378906 "/>
<path style=" stroke:none;fill-rule:nonzero;fill:rgb(94.901961%,94.901961%,94.901961%);fill-opacity:1;" d="M 141.394531 127.414062 L 149.371094 127.414062 L 149.371094 129.894531 L 141.394531 129.894531 Z M 141.394531 127.414062 "/>
<path style=" stroke:none;fill-rule:nonzero;fill:rgb(94.901961%,94.901961%,94.901961%);fill-opacity:1;" d="M 141.394531 139.273438 L 149.371094 139.273438 L 149.371094 141.753906 L 141.394531 141.753906 Z M 141.394531 139.273438 "/>
<path style=" stroke:none;fill-rule:nonzero;fill:rgb(34.117647%,85.882353%,95.686275%);fill-opacity:1;" d="M 151.296875 124.378906 L 154.597656 124.378906 L 154.597656 144.789062 L 151.296875 144.789062 Z M 151.296875 124.378906 "/>
<path style=" stroke:none;fill-rule:nonzero;fill:rgb(94.901961%,94.901961%,94.901961%);fill-opacity:1;" d="M 151.296875 127.414062 L 154.597656 127.414062 L 154.597656 129.894531 L 151.296875 129.894531 Z M 151.296875 127.414062 "/>
<path style=" stroke:none;fill-rule:nonzero;fill:rgb(94.901961%,94.901961%,94.901961%);fill-opacity:1;" d="M 151.296875 139.273438 L 154.597656 139.273438 L 154.597656 141.753906 L 151.296875 141.753906 Z M 151.296875 139.273438 "/>
<path style=" stroke:none;fill-rule:nonzero;fill:rgb(34.117647%,85.882353%,95.686275%);fill-opacity:1;" d="M 156.25 124.378906 L 159.550781 124.378906 L 159.550781 144.789062 L 156.25 144.789062 Z M 156.25 124.378906 "/>
<path style=" stroke:none;fill-rule:nonzero;fill:rgb(94.901961%,94.901961%,94.901961%);fill-opacity:1;" d="M 156.25 127.414062 L 159.550781 127.414062 L 159.550781 129.894531 L 156.25 129.894531 Z M 156.25 127.414062 "/>
<path style=" stroke:none;fill-rule:nonzero;fill:rgb(94.901961%,94.901961%,94.901961%);fill-opacity:1;" d="M 156.25 139.273438 L 159.550781 139.273438 L 159.550781 141.753906 L 156.25 141.753906 Z M 156.25 139.273438 "/>
<path style=" stroke:none;fill-rule:nonzero;fill:rgb(34.117647%,85.882353%,95.686275%);fill-opacity:1;" d="M 159.507812 125.789062 L 162.597656 124.621094 L 169.777344 143.71875 L 166.6875 144.886719 Z M 159.507812 125.789062 "/>
<path style=" stroke:none;fill-rule:nonzero;fill:rgb(94.901961%,94.901961%,94.901961%);fill-opacity:1;" d="M 160.707031 129.128906 L 163.796875 127.960938 L 164.671875 130.28125 L 161.582031 131.449219 Z M 160.707031 129.128906 "/>
<path style=" stroke:none;fill-rule:nonzero;fill:rgb(94.901961%,94.901961%,94.901961%);fill-opacity:1;" d="M 164.878906 139.890625 L 167.96875 138.722656 L 168.84375 141.042969 L 165.753906 142.210938 Z M 164.878906 139.890625 "/>
<path style=" stroke:none;fill-rule:nonzero;fill:rgb(34.117647%,85.882353%,95.686275%);fill-opacity:1;" d="M 216.214844 124.378906 L 224.195312 124.378906 L 224.195312 144.789062 L 216.214844 144.789062 Z M 216.214844 124.378906 "/>
<path style=" stroke:none;fill-rule:nonzero;fill:rgb(94.901961%,94.901961%,94.901961%);fill-opacity:1;" d="M 216.214844 127.414062 L 224.195312 127.414062 L 224.195312 129.894531 L 216.214844 129.894531 Z M 216.214844 127.414062 "/>
<path style=" stroke:none;fill-rule:nonzero;fill:rgb(94.901961%,94.901961%,94.901961%);fill-opacity:1;" d="M 216.214844 139.273438 L 224.195312 139.273438 L 224.195312 141.753906 L 216.214844 141.753906 Z M 216.214844 139.273438 "/>
<path style=" stroke:none;fill-rule:nonzero;fill:rgb(34.117647%,85.882353%,95.686275%);fill-opacity:1;" d="M 210.988281 124.378906 L 214.292969 124.378906 L 214.292969 144.789062 L 210.988281 144.789062 Z M 210.988281 124.378906 "/>
<path style=" stroke:none;fill-rule:nonzero;fill:rgb(94.901961%,94.901961%,94.901961%);fill-opacity:1;" d="M 210.988281 127.414062 L 214.292969 127.414062 L 214.292969 129.894531 L 210.988281 129.894531 Z M 210.988281 127.414062 "/>
<path style=" stroke:none;fill-rule:nonzero;fill:rgb(94.901961%,94.901961%,94.901961%);fill-opacity:1;" d="M 210.988281 139.273438 L 214.292969 139.273438 L 214.292969 141.753906 L 210.988281 141.753906 Z M 210.988281 139.273438 "/>
<path style=" stroke:none;fill-rule:nonzero;fill:rgb(34.117647%,85.882353%,95.686275%);fill-opacity:1;" d="M 206.039062 124.378906 L 209.339844 124.378906 L 209.339844 144.789062 L 206.039062 144.789062 Z M 206.039062 124.378906 "/>
<path style=" stroke:none;fill-rule:nonzero;fill:rgb(94.901961%,94.901961%,94.901961%);fill-opacity:1;" d="M 206.039062 127.414062 L 209.339844 127.414062 L 209.339844 129.894531 L 206.039062 129.894531 Z M 206.039062 127.414062 "/>
<path style=" stroke:none;fill-rule:nonzero;fill:rgb(94.901961%,94.901961%,94.901961%);fill-opacity:1;" d="M 206.039062 139.273438 L 209.339844 139.273438 L 209.339844 141.753906 L 206.039062 141.753906 Z M 206.039062 139.273438 "/>
<path style=" stroke:none;fill-rule:nonzero;fill:rgb(34.117647%,85.882353%,95.686275%);fill-opacity:1;" d="M 195.679688 143.546875 L 202.859375 124.449219 L 205.949219 125.617188 L 198.769531 144.714844 Z M 195.679688 143.546875 "/>
<path style=" stroke:none;fill-rule:nonzero;fill:rgb(94.901961%,94.901961%,94.901961%);fill-opacity:1;" d="M 200.917969 129.945312 L 201.792969 127.625 L 204.878906 128.792969 L 204.007812 131.113281 Z M 200.917969 129.945312 "/>
<path style=" stroke:none;fill-rule:nonzero;fill:rgb(94.901961%,94.901961%,94.901961%);fill-opacity:1;" d="M 196.746094 141.042969 L 197.621094 138.722656 L 200.707031 139.886719 L 199.835938 142.210938 Z M 196.746094 141.042969 "/>
<path style=" stroke:none;fill-rule:nonzero;fill:rgb(94.901961%,94.901961%,94.901961%);fill-opacity:1;" d="M 133.140625 144.789062 L 227.21875 144.789062 L 227.21875 146.71875 L 133.140625 146.71875 Z M 133.140625 144.789062 "/>
<path style=" stroke:none;fill-rule:nonzero;fill:rgb(34.117647%,85.882353%,95.686275%);fill-opacity:1;" d="M 174.128906 124.378906 L 191.460938 124.378906 L 191.460938 144.789062 L 174.128906 144.789062 Z M 174.128906 124.378906 "/>
<path style=" stroke:none;fill-rule:nonzero;fill:rgb(94.901961%,94.901961%,94.901961%);fill-opacity:1;" d="M 178.390625 128.792969 L 187.195312 128.792969 L 187.195312 132.652344 L 178.390625 132.652344 Z M 178.390625 128.792969 "/>
<path style=" stroke:none;fill-rule:nonzero;fill:rgb(94.901961%,94.901961%,94.901961%);fill-opacity:1;" d="M 179.355469 91.5625 L 181.003906 91.5625 L 181.003906 109.210938 L 179.355469 109.210938 Z M 179.355469 91.5625 "/>
<path style=" stroke:none;fill-rule:nonzero;fill:rgb(94.901961%,94.901961%,94.901961%);fill-opacity:1;" d="M 182.929688 109.210938 C 182.929688 110.734375 181.699219 111.96875 180.179688 111.96875 C 178.660156 111.96875 177.429688 110.734375 177.429688 109.210938 C 177.429688 107.6875 178.660156 106.453125 180.179688 106.453125 C 181.699219 106.453125 182.929688 107.6875 182.929688 109.210938 Z M 182.929688 109.210938 "/>
<path style=" stroke:none;fill-rule:nonzero;fill:rgb(34.117647%,85.882353%,95.686275%);fill-opacity:1;" d="M 249.289062 25.09375 L 57.007812 25.09375 L 60.425781 17.925781 L 247.269531 17.925781 Z M 249.289062 25.09375 "/>
<path style=" stroke:none;fill-rule:nonzero;fill:rgb(34.117647%,85.882353%,95.686275%);fill-opacity:1;" d="M 253.957031 41.644531 L 49.113281 41.644531 L 52.53125 34.472656 L 251.933594 34.472656 Z M 253.957031 41.644531 "/>
</g>
</svg>
