<svg xmlns="http://www.w3.org/2000/svg" data-name="Layer 1" width="842" height="530"><rect id="backgroundrect" width="100%" height="100%" x="0" y="0" fill="none" stroke="none" class="" style=""/><title>business_shop</title><g class="currentLayer" style=""><title>Layer 1</title><ellipse cx="426" cy="494.9672546386719" rx="416" ry="32.5" fill="#3f3d56" id="svg_1" class=""/><path d="M650.70151,42.09155123897551 s2.59933,35.091 2.59933,36.39069 S635.1055,169.4589912389755 635.1055,169.4589912389755 s-25.99336,49.38737 0,48.0877 s18.19534,-46.788 18.19534,-46.788 l27.293,-75.38072 l-11.697000000000001,-53.28638 z" fill="#a0616a" id="svg_3" class=""/><rect x="146.1691436767578" y="131.92291259765625" width="516.4627685546875" height="362.7982482910156" fill="#f2f2f2" id="svg_13" class=""/><rect x="189.64495849609375" y="270.3470458984375" width="129.67788696289062" height="226.37411499023438" fill="#3f3d56" id="svg_14" class=""/><rect x="213.63162231445312" y="283.927490234375" width="34.93165969848633" height="32.563411712646484" fill="#f2f2f2" id="svg_15" class=""/><rect x="260.404541015625" y="283.927490234375" width="34.93165969848633" height="32.563411712646484" fill="#f2f2f2" id="svg_16" class=""/><rect x="213.63162231445312" y="328.3321533203125" width="34.93165969848633" height="33.74753952026367" fill="#f2f2f2" id="svg_17" class=""/><rect x="260.404541015625" y="328.3321533203125" width="34.93165969848633" height="33.74753952026367" fill="#f2f2f2" id="svg_18" class=""/><circle cx="302.83203125" cy="398.7745056152344" r="8.245409965515137" fill="#57dbf4" id="svg_19" class=""/><rect x="362.7986755371094" y="248.85787963867188" width="256.3574523925781" height="215.13035583496094" fill="#3f3d56" id="svg_20" class=""/><polygon points="716.6019897460938,200.22537511587143 92.1989974975586,200.22537511587143 133.83099365234375,113.18338292837143 143.1479949951172,93.69436925649643 155.33700561523438,68.2083768248558 164.6540069580078,48.719309747219086 175.4550018310547,26.14221853017807 667.406982421875,26.14221853017807 673.7860107421875,48.719309747219086 679.2949829101562,68.2083768248558 686.4990234375,93.69436925649643 692.0079956054688,113.18338292837143 716.6019897460938,200.22537511587143 " fill="#3f3d56" id="svg_21" class=""/><rect x="371.7936706542969" y="338.05828857421875" width="8.994999885559082" height="55.46915054321289" fill="#57dbf4" id="svg_22" class=""/><rect x="371.7936706542969" y="346.3036804199219" width="8.994999885559082" height="6.746250152587891" fill="#f2f2f2" id="svg_23" class=""/><rect x="371.7936706542969" y="378.5357971191406" width="8.994999885559082" height="6.746250152587891" fill="#f2f2f2" id="svg_24" class=""/><rect x="385.2861633300781" y="338.05828857421875" width="21.7379093170166" height="55.46915054321289" fill="#57dbf4" id="svg_25" class=""/><rect x="385.2861633300781" y="346.3036804199219" width="21.7379093170166" height="6.746250152587891" fill="#f2f2f2" id="svg_26" class=""/><rect x="385.2861633300781" y="378.5357971191406" width="21.7379093170166" height="6.746250152587891" fill="#f2f2f2" id="svg_27" class=""/><rect x="412.2711486816406" y="338.05828857421875" width="8.994999885559082" height="55.46915054321289" fill="#57dbf4" id="svg_28" class=""/><rect x="412.2711486816406" y="346.3036804199219" width="8.994999885559082" height="6.746250152587891" fill="#f2f2f2" id="svg_29" class=""/><rect x="412.2711486816406" y="378.5357971191406" width="8.994999885559082" height="6.746250152587891" fill="#f2f2f2" id="svg_30" class=""/><rect x="425.763671875" y="338.05828857421875" width="8.994999885559082" height="55.46915054321289" fill="#57dbf4" id="svg_31" class=""/><rect x="425.763671875" y="346.3036804199219" width="8.994999885559082" height="6.746250152587891" fill="#f2f2f2" id="svg_32" class=""/><rect x="425.763671875" y="378.5357971191406" width="8.994999885559082" height="6.746250152587891" fill="#f2f2f2" id="svg_33" class=""/><rect x="316.2539771795273" y="609.9024283289909" width="8.994999885559082" height="55.46915054321289" transform="rotate(-20.654109954833984 -359.9765319824219,151.03236389160156) " fill="#57dbf4" id="svg_34" class=""/><rect x="262.7960205078125" y="608.0275557041168" width="8.994999885559082" height="6.746250152587891" transform="rotate(-20.654109954833984 -355.02270507812494,-1.0326468944549454) " fill="#f2f2f2" id="svg_35" class=""/><rect x="264.2574157714844" y="643.2275345921516" width="8.994999885559082" height="6.746250152587891" transform="rotate(-20.654109954833984 -364.9303283691407,4.0069503784179545) " fill="#f2f2f2" id="svg_36" class=""/><rect x="589.1727905273438" y="338.05828857421875" width="21.7379093170166" height="55.46915054321289" fill="#57dbf4" id="svg_37" class=""/><rect x="589.1727905273438" y="346.3036804199219" width="21.7379093170166" height="6.746250152587891" fill="#f2f2f2" id="svg_38" class=""/><rect x="589.1727905273438" y="378.5357971191406" width="21.7379093170166" height="6.746250152587891" fill="#f2f2f2" id="svg_39" class=""/><rect x="574.9307250976562" y="338.05828857421875" width="8.994999885559082" height="55.46915054321289" fill="#57dbf4" id="svg_40" class=""/><rect x="574.9307250976562" y="346.3036804199219" width="8.994999885559082" height="6.746250152587891" fill="#f2f2f2" id="svg_41" class=""/><rect x="574.9307250976562" y="378.5357971191406" width="8.994999885559082" height="6.746250152587891" fill="#f2f2f2" id="svg_42" class=""/><rect x="561.438232421875" y="338.05828857421875" width="8.994999885559082" height="55.46915054321289" fill="#57dbf4" id="svg_43" class=""/><rect x="561.438232421875" y="346.3036804199219" width="8.994999885559082" height="6.746250152587891" fill="#f2f2f2" id="svg_44" class=""/><rect x="561.438232421875" y="378.5357971191406" width="8.994999885559082" height="6.746250152587891" fill="#f2f2f2" id="svg_45" class=""/><rect x="402.32830810546875" y="1446.9901965856552" width="55.46915054321289" height="8.994999885559082" transform="rotate(-69.34588623046875 -296.1332397460938,823.9693603515625) " fill="#57dbf4" id="svg_46" class=""/><rect x="450.16473388671875" y="1428.3771927952766" width="6.746250152587891" height="8.994999885559082" transform="rotate(-69.34588623046875 -278.3428344726562,820.4365844726564) " fill="#f2f2f2" id="svg_47" class=""/><rect x="403.21484375" y="1467.4213822484016" width="6.746250152587891" height="8.994999885559082" transform="rotate(-69.34588623046875 -313.92364501953125,829.3203125) " fill="#f2f2f2" id="svg_48" class=""/><rect x="362.7986755371094" y="393.5274353027344" width="256.3574523925781" height="5.247079849243164" fill="#f2f2f2" id="svg_49" class=""/><rect x="474.486572265625" y="338.05828857421875" width="47.22373962402344" height="55.46915054321289" fill="#57dbf4" id="svg_50" class=""/><rect x="486.1051025390625" y="350.0516052246094" width="23.98666000366211" height="10.494159698486328" fill="#f2f2f2" id="svg_51" class=""/><rect x="488.7286376953125" y="248.85787963867188" width="4.497499942779541" height="47.97332000732422" fill="#f2f2f2" id="svg_52" class=""/><circle cx="490.9773864746094" cy="296.8312072753906" r="7.495830059051514" fill="#f2f2f2" id="svg_53" class=""/><polygon points="679.2949829101562,68.2083768248558 155.33700561523438,68.2083768248558 164.6540069580078,48.719309747219086 673.7860107421875,48.719309747219086 679.2949829101562,68.2083768248558 " fill="#57dbf4" id="svg_54" class=""/><polygon points="692.0079956054688,113.18338292837143 133.83099365234375,113.18338292837143 143.1479949951172,93.69436925649643 686.4990234375,93.69436925649643 692.0079956054688,113.18338292837143 " fill="#57dbf4" id="svg_55" class=""/></g></svg>